solid CATIA STL
  facet normal -9.999999e-001  0.000000e+000  0.000000e+000
    outer loop
      vertex -7.874000e-001  0.000000e+000  4.927600e+000
      vertex -7.874000e-001  0.000000e+000  5.016057e+000
      vertex -7.874000e-001  1.079500e+001  4.927600e+000
    endloop
  endfacet
  facet normal -1.000000e+000  0.000000e+000  0.000000e+000
    outer loop
      vertex -7.874000e-001  1.079500e+001  4.927600e+000
      vertex -7.874000e-001  0.000000e+000  5.016057e+000
      vertex -7.874000e-001  4.924673e+000  5.016057e+000
    endloop
  endfacet
  facet normal -1.000000e+000  0.000000e+000  0.000000e+000
    outer loop
      vertex -7.874000e-001  1.079500e+001  4.927600e+000
      vertex -7.874000e-001  4.924673e+000  5.016057e+000
      vertex -7.874000e-001  1.079500e+001  9.753600e+000
    endloop
  endfacet
  facet normal -1.000000e+000  -0.000000e+000  0.000000e+000
    outer loop
      vertex -7.874000e-001  1.079500e+001  9.753600e+000
      vertex -7.874000e-001  4.924673e+000  5.016057e+000
      vertex -7.874000e-001  4.924673e+000  9.753600e+000
    endloop
  endfacet
  facet normal  0.000000e+000  0.000000e+000  1.000000e+000
    outer loop
      vertex -7.874000e-001  4.924673e+000  9.753600e+000
      vertex  0.000000e+000  4.924673e+000  9.753600e+000
      vertex -7.874000e-001  1.079500e+001  9.753600e+000
    endloop
  endfacet
  facet normal  -0.000000e+000  0.000000e+000  1.000000e+000
    outer loop
      vertex -7.874000e-001  1.079500e+001  9.753600e+000
      vertex  0.000000e+000  4.924673e+000  9.753600e+000
      vertex  0.000000e+000  1.079500e+001  9.753600e+000
    endloop
  endfacet
  facet normal  0.000000e+000  0.000000e+000  1.000000e+000
    outer loop
      vertex  0.000000e+000  4.924673e+000  9.753600e+000
      vertex  7.874000e-001  4.924673e+000  9.753600e+000
      vertex  0.000000e+000  1.079500e+001  9.753600e+000
    endloop
  endfacet
  facet normal  -0.000000e+000  0.000000e+000  1.000000e+000
    outer loop
      vertex  0.000000e+000  1.079500e+001  9.753600e+000
      vertex  7.874000e-001  4.924673e+000  9.753600e+000
      vertex  7.874000e-001  1.079500e+001  9.753600e+000
    endloop
  endfacet
  facet normal  9.999999e-001  0.000000e+000  0.000000e+000
    outer loop
      vertex  7.874000e-001  0.000000e+000  4.927600e+000
      vertex  7.874000e-001  1.079500e+001  4.927600e+000
      vertex  7.874000e-001  0.000000e+000  5.016057e+000
    endloop
  endfacet
  facet normal  1.000000e+000  -0.000000e+000  0.000000e+000
    outer loop
      vertex  7.874000e-001  0.000000e+000  5.016057e+000
      vertex  7.874000e-001  1.079500e+001  4.927600e+000
      vertex  7.874000e-001  4.924673e+000  5.016057e+000
    endloop
  endfacet
  facet normal  1.000000e+000  0.000000e+000  0.000000e+000
    outer loop
      vertex  7.874000e-001  1.079500e+001  4.927600e+000
      vertex  7.874000e-001  1.079500e+001  9.753600e+000
      vertex  7.874000e-001  4.924673e+000  5.016057e+000
    endloop
  endfacet
  facet normal  1.000000e+000  0.000000e+000  0.000000e+000
    outer loop
      vertex  7.874000e-001  4.924673e+000  5.016057e+000
      vertex  7.874000e-001  1.079500e+001  9.753600e+000
      vertex  7.874000e-001  4.924673e+000  9.753600e+000
    endloop
  endfacet
  facet normal  0.000000e+000 -1.000000e+000  0.000000e+000
    outer loop
      vertex -1.841500e+000  0.000000e+000  1.727200e+000
      vertex -1.841500e+000  0.000000e+000  0.000000e+000
      vertex  0.000000e+000  0.000000e+000  0.000000e+000
    endloop
  endfacet
  facet normal  0.000000e+000 -1.000000e+000  0.000000e+000
    outer loop
      vertex -1.841500e+000  0.000000e+000  4.927600e+000
      vertex -1.841500e+000  0.000000e+000  3.454400e+000
      vertex -7.874000e-001  0.000000e+000  3.454400e+000
    endloop
  endfacet
  facet normal  0.000000e+000 -1.000000e+000  0.000000e+000
    outer loop
      vertex -1.841500e+000  0.000000e+000  4.927600e+000
      vertex -7.874000e-001  0.000000e+000  3.454400e+000
      vertex  7.874000e-001  0.000000e+000  3.454400e+000
    endloop
  endfacet
  facet normal  0.000000e+000 -1.000000e+000  0.000000e+000
    outer loop
      vertex -1.841500e+000  0.000000e+000  4.927600e+000
      vertex  7.874000e-001  0.000000e+000  3.454400e+000
      vertex  1.841500e+000  0.000000e+000  3.454400e+000
    endloop
  endfacet
  facet normal  -0.000000e+000 -1.000000e+000  -0.000000e+000
    outer loop
      vertex  1.841500e+000  0.000000e+000  3.454400e+000
      vertex  1.841500e+000  0.000000e+000  4.927600e+000
      vertex  7.874000e-001  0.000000e+000  4.927600e+000
    endloop
  endfacet
  facet normal  -0.000000e+000 -1.000000e+000  -0.000000e+000
    outer loop
      vertex  1.841500e+000  0.000000e+000  3.454400e+000
      vertex  7.874000e-001  0.000000e+000  4.927600e+000
      vertex -7.874000e-001  0.000000e+000  4.927600e+000
    endloop
  endfacet
  facet normal  -0.000000e+000 -1.000000e+000  -0.000000e+000
    outer loop
      vertex  1.841500e+000  0.000000e+000  3.454400e+000
      vertex -7.874000e-001  0.000000e+000  4.927600e+000
      vertex -1.841500e+000  0.000000e+000  4.927600e+000
    endloop
  endfacet
  facet normal  -0.000000e+000 -1.000000e+000  -0.000000e+000
    outer loop
      vertex  1.841500e+000  0.000000e+000 -1.255120e-014
      vertex  1.841500e+000  0.000000e+000  1.727200e+000
      vertex  7.874000e-001  0.000000e+000  1.727200e+000
    endloop
  endfacet
  facet normal  -0.000000e+000 -1.000000e+000  -0.000000e+000
    outer loop
      vertex  1.841500e+000  0.000000e+000 -1.255120e-014
      vertex  7.874000e-001  0.000000e+000  1.727200e+000
      vertex -7.874000e-001  0.000000e+000  1.727200e+000
    endloop
  endfacet
  facet normal  -0.000000e+000 -1.000000e+000  -0.000000e+000
    outer loop
      vertex  1.841500e+000  0.000000e+000 -1.255120e-014
      vertex -7.874000e-001  0.000000e+000  1.727200e+000
      vertex -1.841500e+000  0.000000e+000  1.727200e+000
    endloop
  endfacet
  facet normal  0.000000e+000 -1.000000e+000  0.000000e+000
    outer loop
      vertex  1.841500e+000  0.000000e+000 -1.255120e-014
      vertex -1.841500e+000  0.000000e+000  1.727200e+000
      vertex  0.000000e+000  0.000000e+000  0.000000e+000
    endloop
  endfacet
  facet normal  0.000000e+000 -1.000000e+000  -0.000000e+000
    outer loop
      vertex  7.874000e-001  0.000000e+000  4.927600e+000
      vertex  7.874000e-001  0.000000e+000  5.016057e+000
      vertex -7.874000e-001  0.000000e+000  4.927600e+000
    endloop
  endfacet
  facet normal  0.000000e+000 -1.000000e+000  0.000000e+000
    outer loop
      vertex -7.874000e-001  0.000000e+000  4.927600e+000
      vertex  7.874000e-001  0.000000e+000  5.016057e+000
      vertex -7.874000e-001  0.000000e+000  5.016057e+000
    endloop
  endfacet
  facet normal  0.000000e+000 -1.000000e+000  -0.000000e+000
    outer loop
      vertex  7.874000e-001  0.000000e+000  1.727200e+000
      vertex  7.874000e-001  0.000000e+000  3.454400e+000
      vertex -7.874000e-001  0.000000e+000  1.727200e+000
    endloop
  endfacet
  facet normal  0.000000e+000 -1.000000e+000  0.000000e+000
    outer loop
      vertex -7.874000e-001  0.000000e+000  1.727200e+000
      vertex  7.874000e-001  0.000000e+000  3.454400e+000
      vertex -7.874000e-001  0.000000e+000  3.454400e+000
    endloop
  endfacet
  facet normal  0.000000e+000  0.000000e+000  9.999999e-001
    outer loop
      vertex  7.874000e-001  0.000000e+000  5.016057e+000
      vertex  7.874000e-001  4.924673e+000  5.016057e+000
      vertex -7.874000e-001  0.000000e+000  5.016057e+000
    endloop
  endfacet
  facet normal  0.000000e+000  0.000000e+000  9.999999e-001
    outer loop
      vertex -7.874000e-001  0.000000e+000  5.016057e+000
      vertex  7.874000e-001  4.924673e+000  5.016057e+000
      vertex -7.874000e-001  4.924673e+000  5.016057e+000
    endloop
  endfacet
  facet normal  0.000000e+000 -1.000000e+000  0.000000e+000
    outer loop
      vertex -7.874000e-001  4.924673e+000  9.753600e+000
      vertex -7.874000e-001  4.924673e+000  5.016057e+000
      vertex  0.000000e+000  4.924673e+000  9.753600e+000
    endloop
  endfacet
  facet normal  0.000000e+000 -1.000000e+000  -0.000000e+000
    outer loop
      vertex  0.000000e+000  4.924673e+000  9.753600e+000
      vertex -7.874000e-001  4.924673e+000  5.016057e+000
      vertex  7.874000e-001  4.924673e+000  5.016057e+000
    endloop
  endfacet
  facet normal  0.000000e+000 -1.000000e+000  0.000000e+000
    outer loop
      vertex  0.000000e+000  4.924673e+000  9.753600e+000
      vertex  7.874000e-001  4.924673e+000  5.016057e+000
      vertex  7.874000e-001  4.924673e+000  9.753600e+000
    endloop
  endfacet
  facet normal  0.000000e+000  1.000000e+000  0.000000e+000
    outer loop
      vertex -1.841500e+000  1.079500e+001  1.727200e+000
      vertex  0.000000e+000  1.079500e+001  0.000000e+000
      vertex -1.841500e+000  1.079500e+001  0.000000e+000
    endloop
  endfacet
  facet normal  0.000000e+000  1.000000e+000  0.000000e+000
    outer loop
      vertex -1.841500e+000  1.079500e+001  4.927600e+000
      vertex  1.841500e+000  1.079500e+001  3.454400e+000
      vertex  7.874000e-001  1.079500e+001  3.454400e+000
    endloop
  endfacet
  facet normal  0.000000e+000  1.000000e+000  0.000000e+000
    outer loop
      vertex -1.841500e+000  1.079500e+001  4.927600e+000
      vertex  7.874000e-001  1.079500e+001  3.454400e+000
      vertex -7.874000e-001  1.079500e+001  3.454400e+000
    endloop
  endfacet
  facet normal  0.000000e+000  1.000000e+000  0.000000e+000
    outer loop
      vertex -1.841500e+000  1.079500e+001  4.927600e+000
      vertex -7.874000e-001  1.079500e+001  3.454400e+000
      vertex -1.841500e+000  1.079500e+001  3.454400e+000
    endloop
  endfacet
  facet normal  -0.000000e+000  1.000000e+000  0.000000e+000
    outer loop
      vertex  1.841500e+000  1.079500e+001  3.454400e+000
      vertex -1.841500e+000  1.079500e+001  4.927600e+000
      vertex -7.874000e-001  1.079500e+001  4.927600e+000
    endloop
  endfacet
  facet normal  -0.000000e+000  1.000000e+000  0.000000e+000
    outer loop
      vertex  1.841500e+000  1.079500e+001  3.454400e+000
      vertex -7.874000e-001  1.079500e+001  4.927600e+000
      vertex  7.874000e-001  1.079500e+001  4.927600e+000
    endloop
  endfacet
  facet normal  -0.000000e+000  1.000000e+000  0.000000e+000
    outer loop
      vertex  1.841500e+000  1.079500e+001  3.454400e+000
      vertex  7.874000e-001  1.079500e+001  4.927600e+000
      vertex  1.841500e+000  1.079500e+001  4.927600e+000
    endloop
  endfacet
  facet normal  -0.000000e+000  1.000000e+000  -0.000000e+000
    outer loop
      vertex  1.841500e+000  1.079500e+001 -1.255120e-014
      vertex  0.000000e+000  1.079500e+001  0.000000e+000
      vertex -1.841500e+000  1.079500e+001  1.727200e+000
    endloop
  endfacet
  facet normal  -0.000000e+000  1.000000e+000  0.000000e+000
    outer loop
      vertex  1.841500e+000  1.079500e+001 -1.255120e-014
      vertex -1.841500e+000  1.079500e+001  1.727200e+000
      vertex -7.874000e-001  1.079500e+001  1.727200e+000
    endloop
  endfacet
  facet normal  -0.000000e+000  1.000000e+000  0.000000e+000
    outer loop
      vertex  1.841500e+000  1.079500e+001 -1.255120e-014
      vertex -7.874000e-001  1.079500e+001  1.727200e+000
      vertex  7.874000e-001  1.079500e+001  1.727200e+000
    endloop
  endfacet
  facet normal  -0.000000e+000  1.000000e+000  0.000000e+000
    outer loop
      vertex  1.841500e+000  1.079500e+001 -1.255120e-014
      vertex  7.874000e-001  1.079500e+001  1.727200e+000
      vertex  1.841500e+000  1.079500e+001  1.727200e+000
    endloop
  endfacet
  facet normal  0.000000e+000  1.000000e+000  0.000000e+000
    outer loop
      vertex -7.874000e-001  1.079500e+001  4.927600e+000
      vertex -7.874000e-001  1.079500e+001  9.753600e+000
      vertex  7.874000e-001  1.079500e+001  4.927600e+000
    endloop
  endfacet
  facet normal  0.000000e+000  1.000000e+000  0.000000e+000
    outer loop
      vertex  7.874000e-001  1.079500e+001  4.927600e+000
      vertex -7.874000e-001  1.079500e+001  9.753600e+000
      vertex  0.000000e+000  1.079500e+001  9.753600e+000
    endloop
  endfacet
  facet normal  -0.000000e+000  1.000000e+000  0.000000e+000
    outer loop
      vertex  7.874000e-001  1.079500e+001  4.927600e+000
      vertex  0.000000e+000  1.079500e+001  9.753600e+000
      vertex  7.874000e-001  1.079500e+001  9.753600e+000
    endloop
  endfacet
  facet normal  0.000000e+000  1.000000e+000  0.000000e+000
    outer loop
      vertex  7.874000e-001  1.079500e+001  1.727200e+000
      vertex -7.874000e-001  1.079500e+001  1.727200e+000
      vertex  7.874000e-001  1.079500e+001  3.454400e+000
    endloop
  endfacet
  facet normal  0.000000e+000  1.000000e+000  0.000000e+000
    outer loop
      vertex  7.874000e-001  1.079500e+001  3.454400e+000
      vertex -7.874000e-001  1.079500e+001  1.727200e+000
      vertex -7.874000e-001  1.079500e+001  3.454400e+000
    endloop
  endfacet
  facet normal -6.815748e-015  0.000000e+000 -1.000000e+000
    outer loop
      vertex  1.841500e+000  0.000000e+000 -1.255120e-014
      vertex  0.000000e+000  0.000000e+000  0.000000e+000
      vertex  1.841500e+000  1.079500e+001 -1.255120e-014
    endloop
  endfacet
  facet normal -6.815748e-015  0.000000e+000 -1.000000e+000
    outer loop
      vertex  1.841500e+000  1.079500e+001 -1.255120e-014
      vertex  0.000000e+000  0.000000e+000  0.000000e+000
      vertex  0.000000e+000  1.079500e+001  0.000000e+000
    endloop
  endfacet
  facet normal  1.000000e+000  0.000000e+000  0.000000e+000
    outer loop
      vertex  1.841500e+000  0.000000e+000 -1.255120e-014
      vertex  1.841500e+000  1.079500e+001 -1.255120e-014
      vertex  1.841500e+000  0.000000e+000  1.727200e+000
    endloop
  endfacet
  facet normal  1.000000e+000  -0.000000e+000  0.000000e+000
    outer loop
      vertex  1.841500e+000  0.000000e+000  1.727200e+000
      vertex  1.841500e+000  1.079500e+001 -1.255120e-014
      vertex  1.841500e+000  1.079500e+001  1.727200e+000
    endloop
  endfacet
  facet normal  0.000000e+000  0.000000e+000  9.999999e-001
    outer loop
      vertex  7.874000e-001  0.000000e+000  1.727200e+000
      vertex  1.841500e+000  0.000000e+000  1.727200e+000
      vertex  7.874000e-001  1.079500e+001  1.727200e+000
    endloop
  endfacet
  facet normal  -0.000000e+000  0.000000e+000  9.999999e-001
    outer loop
      vertex  7.874000e-001  1.079500e+001  1.727200e+000
      vertex  1.841500e+000  0.000000e+000  1.727200e+000
      vertex  1.841500e+000  1.079500e+001  1.727200e+000
    endloop
  endfacet
  facet normal  1.000000e+000  0.000000e+000  0.000000e+000
    outer loop
      vertex  7.874000e-001  0.000000e+000  1.727200e+000
      vertex  7.874000e-001  1.079500e+001  1.727200e+000
      vertex  7.874000e-001  0.000000e+000  3.454400e+000
    endloop
  endfacet
  facet normal  1.000000e+000  -0.000000e+000  0.000000e+000
    outer loop
      vertex  7.874000e-001  0.000000e+000  3.454400e+000
      vertex  7.874000e-001  1.079500e+001  1.727200e+000
      vertex  7.874000e-001  1.079500e+001  3.454400e+000
    endloop
  endfacet
  facet normal  0.000000e+000  0.000000e+000 -9.999999e-001
    outer loop
      vertex  1.841500e+000  0.000000e+000  3.454400e+000
      vertex  7.874000e-001  0.000000e+000  3.454400e+000
      vertex  1.841500e+000  1.079500e+001  3.454400e+000
    endloop
  endfacet
  facet normal  -0.000000e+000  0.000000e+000 -9.999999e-001
    outer loop
      vertex  1.841500e+000  1.079500e+001  3.454400e+000
      vertex  7.874000e-001  0.000000e+000  3.454400e+000
      vertex  7.874000e-001  1.079500e+001  3.454400e+000
    endloop
  endfacet
  facet normal  1.000000e+000  0.000000e+000  0.000000e+000
    outer loop
      vertex  1.841500e+000  0.000000e+000  3.454400e+000
      vertex  1.841500e+000  1.079500e+001  3.454400e+000
      vertex  1.841500e+000  0.000000e+000  4.927600e+000
    endloop
  endfacet
  facet normal  1.000000e+000  -0.000000e+000  0.000000e+000
    outer loop
      vertex  1.841500e+000  0.000000e+000  4.927600e+000
      vertex  1.841500e+000  1.079500e+001  3.454400e+000
      vertex  1.841500e+000  1.079500e+001  4.927600e+000
    endloop
  endfacet
  facet normal  0.000000e+000  0.000000e+000  9.999999e-001
    outer loop
      vertex  7.874000e-001  0.000000e+000  4.927600e+000
      vertex  1.841500e+000  0.000000e+000  4.927600e+000
      vertex  7.874000e-001  1.079500e+001  4.927600e+000
    endloop
  endfacet
  facet normal  -0.000000e+000  0.000000e+000  9.999999e-001
    outer loop
      vertex  7.874000e-001  1.079500e+001  4.927600e+000
      vertex  1.841500e+000  0.000000e+000  4.927600e+000
      vertex  1.841500e+000  1.079500e+001  4.927600e+000
    endloop
  endfacet
  facet normal  0.000000e+000  0.000000e+000  9.999999e-001
    outer loop
      vertex -1.841500e+000  0.000000e+000  4.927600e+000
      vertex -7.874000e-001  0.000000e+000  4.927600e+000
      vertex -1.841500e+000  1.079500e+001  4.927600e+000
    endloop
  endfacet
  facet normal  -0.000000e+000  0.000000e+000  9.999999e-001
    outer loop
      vertex -1.841500e+000  1.079500e+001  4.927600e+000
      vertex -7.874000e-001  0.000000e+000  4.927600e+000
      vertex -7.874000e-001  1.079500e+001  4.927600e+000
    endloop
  endfacet
  facet normal -1.000000e+000  0.000000e+000  0.000000e+000
    outer loop
      vertex -1.841500e+000  0.000000e+000  3.454400e+000
      vertex -1.841500e+000  0.000000e+000  4.927600e+000
      vertex -1.841500e+000  1.079500e+001  3.454400e+000
    endloop
  endfacet
  facet normal -1.000000e+000  0.000000e+000  0.000000e+000
    outer loop
      vertex -1.841500e+000  1.079500e+001  3.454400e+000
      vertex -1.841500e+000  0.000000e+000  4.927600e+000
      vertex -1.841500e+000  1.079500e+001  4.927600e+000
    endloop
  endfacet
  facet normal  0.000000e+000  0.000000e+000 -9.999999e-001
    outer loop
      vertex -7.874000e-001  0.000000e+000  3.454400e+000
      vertex -1.841500e+000  0.000000e+000  3.454400e+000
      vertex -7.874000e-001  1.079500e+001  3.454400e+000
    endloop
  endfacet
  facet normal  -0.000000e+000  0.000000e+000 -9.999999e-001
    outer loop
      vertex -7.874000e-001  1.079500e+001  3.454400e+000
      vertex -1.841500e+000  0.000000e+000  3.454400e+000
      vertex -1.841500e+000  1.079500e+001  3.454400e+000
    endloop
  endfacet
  facet normal -1.000000e+000  0.000000e+000  0.000000e+000
    outer loop
      vertex -7.874000e-001  0.000000e+000  1.727200e+000
      vertex -7.874000e-001  0.000000e+000  3.454400e+000
      vertex -7.874000e-001  1.079500e+001  1.727200e+000
    endloop
  endfacet
  facet normal -1.000000e+000  0.000000e+000  0.000000e+000
    outer loop
      vertex -7.874000e-001  1.079500e+001  1.727200e+000
      vertex -7.874000e-001  0.000000e+000  3.454400e+000
      vertex -7.874000e-001  1.079500e+001  3.454400e+000
    endloop
  endfacet
  facet normal  0.000000e+000  0.000000e+000  9.999999e-001
    outer loop
      vertex -1.841500e+000  0.000000e+000  1.727200e+000
      vertex -7.874000e-001  0.000000e+000  1.727200e+000
      vertex -1.841500e+000  1.079500e+001  1.727200e+000
    endloop
  endfacet
  facet normal  -0.000000e+000  0.000000e+000  9.999999e-001
    outer loop
      vertex -1.841500e+000  1.079500e+001  1.727200e+000
      vertex -7.874000e-001  0.000000e+000  1.727200e+000
      vertex -7.874000e-001  1.079500e+001  1.727200e+000
    endloop
  endfacet
  facet normal -1.000000e+000  0.000000e+000  0.000000e+000
    outer loop
      vertex -1.841500e+000  0.000000e+000  0.000000e+000
      vertex -1.841500e+000  0.000000e+000  1.727200e+000
      vertex -1.841500e+000  1.079500e+001  0.000000e+000
    endloop
  endfacet
  facet normal -1.000000e+000  0.000000e+000  0.000000e+000
    outer loop
      vertex -1.841500e+000  1.079500e+001  0.000000e+000
      vertex -1.841500e+000  0.000000e+000  1.727200e+000
      vertex -1.841500e+000  1.079500e+001  1.727200e+000
    endloop
  endfacet
  facet normal  0.000000e+000  0.000000e+000 -1.000000e+000
    outer loop
      vertex  0.000000e+000  0.000000e+000  0.000000e+000
      vertex -1.841500e+000  0.000000e+000  0.000000e+000
      vertex  0.000000e+000  1.079500e+001  0.000000e+000
    endloop
  endfacet
  facet normal  -0.000000e+000  0.000000e+000 -1.000000e+000
    outer loop
      vertex  0.000000e+000  1.079500e+001  0.000000e+000
      vertex -1.841500e+000  0.000000e+000  0.000000e+000
      vertex -1.841500e+000  1.079500e+001  0.000000e+000
    endloop
  endfacet
endsolid CATIA STL
