solid OpenSCAD_Model
  facet normal -1 0 0
    outer loop
      vertex -15 -20 6
      vertex -15 20 9
      vertex -15 20 6
    endloop
  endfacet
  facet normal -1 -0 0
    outer loop
      vertex -15 20 9
      vertex -15 -20 6
      vertex -15 -20 9
    endloop
  endfacet
  facet normal 0 0 1
    outer loop
      vertex 15 20 9
      vertex 7 0 9
      vertex 15 -20 9
    endloop
  endfacet
  facet normal 0 0 1
    outer loop
      vertex 15 20 9
      vertex 6.97634 0.375999 9
      vertex 7 0 9
    endloop
  endfacet
  facet normal 0 0 1
    outer loop
      vertex 15 20 9
      vertex 6.90575 0.746069 9
      vertex 6.97634 0.375999 9
    endloop
  endfacet
  facet normal 0 0 1
    outer loop
      vertex 15 20 9
      vertex 6.78933 1.10437 9
      vertex 6.90575 0.746069 9
    endloop
  endfacet
  facet normal 0 0 1
    outer loop
      vertex 15 20 9
      vertex 6.62892 1.44526 9
      vertex 6.78933 1.10437 9
    endloop
  endfacet
  facet normal 0 0 1
    outer loop
      vertex 15 20 9
      vertex 6.42705 1.76336 9
      vertex 6.62892 1.44526 9
    endloop
  endfacet
  facet normal 0 0 1
    outer loop
      vertex 15 20 9
      vertex 6.18691 2.05364 9
      vertex 6.42705 1.76336 9
    endloop
  endfacet
  facet normal 0 0 1
    outer loop
      vertex 15 20 9
      vertex 5.91227 2.31154 9
      vertex 6.18691 2.05364 9
    endloop
  endfacet
  facet normal 0 0 1
    outer loop
      vertex 15 20 9
      vertex 5.60748 2.53298 9
      vertex 5.91227 2.31154 9
    endloop
  endfacet
  facet normal 0 0 1
    outer loop
      vertex 15 20 9
      vertex 5.27734 2.71448 9
      vertex 5.60748 2.53298 9
    endloop
  endfacet
  facet normal 0 0 1
    outer loop
      vertex 15 20 9
      vertex 4.92705 2.85317 9
      vertex 5.27734 2.71448 9
    endloop
  endfacet
  facet normal 0 0 1
    outer loop
      vertex 15 20 9
      vertex 4.56214 2.94686 9
      vertex 4.92705 2.85317 9
    endloop
  endfacet
  facet normal 0 0 1
    outer loop
      vertex 15 20 9
      vertex 4.18837 2.99408 9
      vertex 4.56214 2.94686 9
    endloop
  endfacet
  facet normal 0 0 1
    outer loop
      vertex 15 20 9
      vertex 3.81163 2.99408 9
      vertex 4.18837 2.99408 9
    endloop
  endfacet
  facet normal 0 0 1
    outer loop
      vertex 15 20 9
      vertex 3.43786 2.94686 9
      vertex 3.81163 2.99408 9
    endloop
  endfacet
  facet normal -0 0 1
    outer loop
      vertex -15 20 9
      vertex 3.43786 2.94686 9
      vertex 15 20 9
    endloop
  endfacet
  facet normal 0 0 1
    outer loop
      vertex 3.43786 2.94686 9
      vertex -15 20 9
      vertex 3.07295 2.85317 9
    endloop
  endfacet
  facet normal 0 0 1
    outer loop
      vertex 3.07295 2.85317 9
      vertex -15 20 9
      vertex 2.72266 2.71448 9
    endloop
  endfacet
  facet normal 0 0 1
    outer loop
      vertex 2.72266 2.71448 9
      vertex -15 20 9
      vertex 2.39252 2.53298 9
    endloop
  endfacet
  facet normal 0 0 1
    outer loop
      vertex 2.39252 2.53298 9
      vertex -15 20 9
      vertex 2.08773 2.31154 9
    endloop
  endfacet
  facet normal 0 0 1
    outer loop
      vertex 2.08773 2.31154 9
      vertex -15 20 9
      vertex 1.81309 2.05364 9
    endloop
  endfacet
  facet normal 0 0 1
    outer loop
      vertex 1.02366 0.375999 9
      vertex -15 20 9
      vertex 1 0 9
    endloop
  endfacet
  facet normal 0 0 1
    outer loop
      vertex 1.09425 0.746069 9
      vertex -15 20 9
      vertex 1.02366 0.375999 9
    endloop
  endfacet
  facet normal 0 0 1
    outer loop
      vertex 1.21067 1.10437 9
      vertex -15 20 9
      vertex 1.09425 0.746069 9
    endloop
  endfacet
  facet normal 0 0 1
    outer loop
      vertex 1.37108 1.44526 9
      vertex -15 20 9
      vertex 1.21067 1.10437 9
    endloop
  endfacet
  facet normal 0 0 1
    outer loop
      vertex 1.57295 1.76336 9
      vertex -15 20 9
      vertex 1.37108 1.44526 9
    endloop
  endfacet
  facet normal 0 0 1
    outer loop
      vertex 1.81309 2.05364 9
      vertex -15 20 9
      vertex 1.57295 1.76336 9
    endloop
  endfacet
  facet normal -0 0 1
    outer loop
      vertex 6.97634 -0.375999 9
      vertex 15 -20 9
      vertex 7 0 9
    endloop
  endfacet
  facet normal -0 0 1
    outer loop
      vertex 6.90575 -0.746069 9
      vertex 15 -20 9
      vertex 6.97634 -0.375999 9
    endloop
  endfacet
  facet normal -0 0 1
    outer loop
      vertex 6.78933 -1.10437 9
      vertex 15 -20 9
      vertex 6.90575 -0.746069 9
    endloop
  endfacet
  facet normal -0 0 1
    outer loop
      vertex 6.62892 -1.44526 9
      vertex 15 -20 9
      vertex 6.78933 -1.10437 9
    endloop
  endfacet
  facet normal -0 0 1
    outer loop
      vertex 6.42705 -1.76336 9
      vertex 15 -20 9
      vertex 6.62892 -1.44526 9
    endloop
  endfacet
  facet normal -0 0 1
    outer loop
      vertex 6.18691 -2.05364 9
      vertex 15 -20 9
      vertex 6.42705 -1.76336 9
    endloop
  endfacet
  facet normal -0 0 1
    outer loop
      vertex 5.91227 -2.31154 9
      vertex 15 -20 9
      vertex 6.18691 -2.05364 9
    endloop
  endfacet
  facet normal -0 0 1
    outer loop
      vertex 5.60748 -2.53298 9
      vertex 15 -20 9
      vertex 5.91227 -2.31154 9
    endloop
  endfacet
  facet normal -0 0 1
    outer loop
      vertex 5.27734 -2.71448 9
      vertex 15 -20 9
      vertex 5.60748 -2.53298 9
    endloop
  endfacet
  facet normal -0 0 1
    outer loop
      vertex 4.92705 -2.85317 9
      vertex 15 -20 9
      vertex 5.27734 -2.71448 9
    endloop
  endfacet
  facet normal -0 0 1
    outer loop
      vertex 4.56214 -2.94686 9
      vertex 15 -20 9
      vertex 4.92705 -2.85317 9
    endloop
  endfacet
  facet normal -0 0 1
    outer loop
      vertex 4.18837 -2.99408 9
      vertex 15 -20 9
      vertex 4.56214 -2.94686 9
    endloop
  endfacet
  facet normal -0 0 1
    outer loop
      vertex 3.81163 -2.99408 9
      vertex 15 -20 9
      vertex 4.18837 -2.99408 9
    endloop
  endfacet
  facet normal 0 0 1
    outer loop
      vertex 3.43786 -2.94686 9
      vertex 15 -20 9
      vertex 3.81163 -2.99408 9
    endloop
  endfacet
  facet normal 0 0 1
    outer loop
      vertex -15 -20 9
      vertex 3.43786 -2.94686 9
      vertex 3.07295 -2.85317 9
    endloop
  endfacet
  facet normal 0 0 1
    outer loop
      vertex -15 -20 9
      vertex 3.07295 -2.85317 9
      vertex 2.72266 -2.71448 9
    endloop
  endfacet
  facet normal 0 0 1
    outer loop
      vertex -15 -20 9
      vertex 2.72266 -2.71448 9
      vertex 2.39252 -2.53298 9
    endloop
  endfacet
  facet normal 0 0 1
    outer loop
      vertex -15 -20 9
      vertex 2.39252 -2.53298 9
      vertex 2.08773 -2.31154 9
    endloop
  endfacet
  facet normal 0 0 1
    outer loop
      vertex -15 -20 9
      vertex 2.08773 -2.31154 9
      vertex 1.81309 -2.05364 9
    endloop
  endfacet
  facet normal 0 0 1
    outer loop
      vertex -15 -20 9
      vertex 1.81309 -2.05364 9
      vertex 1.57295 -1.76336 9
    endloop
  endfacet
  facet normal 0 0 1
    outer loop
      vertex -15 -20 9
      vertex 1 0 9
      vertex -15 20 9
    endloop
  endfacet
  facet normal 0 0 1
    outer loop
      vertex 1 0 9
      vertex -15 -20 9
      vertex 1.02366 -0.375999 9
    endloop
  endfacet
  facet normal 0 0 1
    outer loop
      vertex 1.02366 -0.375999 9
      vertex -15 -20 9
      vertex 1.09425 -0.746069 9
    endloop
  endfacet
  facet normal 0 0 1
    outer loop
      vertex 1.09425 -0.746069 9
      vertex -15 -20 9
      vertex 1.21067 -1.10437 9
    endloop
  endfacet
  facet normal 0 0 1
    outer loop
      vertex 1.21067 -1.10437 9
      vertex -15 -20 9
      vertex 1.37108 -1.44526 9
    endloop
  endfacet
  facet normal 0 0 1
    outer loop
      vertex 1.37108 -1.44526 9
      vertex -15 -20 9
      vertex 1.57295 -1.76336 9
    endloop
  endfacet
  facet normal 0 0 1
    outer loop
      vertex 3.43786 -2.94686 9
      vertex -15 -20 9
      vertex 15 -20 9
    endloop
  endfacet
  facet normal 1 -0 0
    outer loop
      vertex 15 -20 9
      vertex 15 20 6
      vertex 15 20 9
    endloop
  endfacet
  facet normal 1 0 0
    outer loop
      vertex 15 20 6
      vertex 15 -20 9
      vertex 15 -20 6
    endloop
  endfacet
  facet normal 0 1 -0
    outer loop
      vertex 15 20 6
      vertex -15 20 9
      vertex 15 20 9
    endloop
  endfacet
  facet normal 0 1 0
    outer loop
      vertex -15 20 9
      vertex 15 20 6
      vertex -15 20 6
    endloop
  endfacet
  facet normal 0 0 -1
    outer loop
      vertex 15 -20 6
      vertex 10.9948 -10.9948 6
      vertex 15 20 6
    endloop
  endfacet
  facet normal 0 0 -1
    outer loop
      vertex 15 -20 6
      vertex -10.9948 -10.9948 6
      vertex 10.9948 -10.9948 6
    endloop
  endfacet
  facet normal -0 0 -1
    outer loop
      vertex -10.9948 -10.9948 6
      vertex -15 -20 6
      vertex -10.9948 10.9948 6
    endloop
  endfacet
  facet normal 0 0 -1
    outer loop
      vertex -15 -20 6
      vertex -10.9948 -10.9948 6
      vertex 15 -20 6
    endloop
  endfacet
  facet normal 0 0 -1
    outer loop
      vertex 10.9948 10.9948 6
      vertex 15 20 6
      vertex 10.9948 -10.9948 6
    endloop
  endfacet
  facet normal 0 0 -1
    outer loop
      vertex -10.9948 10.9948 6
      vertex 15 20 6
      vertex 10.9948 10.9948 6
    endloop
  endfacet
  facet normal 0 0 -1
    outer loop
      vertex -10.9948 10.9948 6
      vertex -15 20 6
      vertex 15 20 6
    endloop
  endfacet
  facet normal 0 0 -1
    outer loop
      vertex -15 20 6
      vertex -10.9948 10.9948 6
      vertex -15 -20 6
    endloop
  endfacet
  facet normal 0 0 -1
    outer loop
      vertex 8.53478 -8.53478 6
      vertex 8.44959 -3.23282 6
      vertex 8.53478 -3.09859 6
    endloop
  endfacet
  facet normal 0 0 -1
    outer loop
      vertex 8.53478 -8.53478 6
      vertex 8.00933 -3.76501 6
      vertex 8.44959 -3.23282 6
    endloop
  endfacet
  facet normal 0 0 -1
    outer loop
      vertex 8.53478 -8.53478 6
      vertex 7.50583 -4.23782 6
      vertex 8.00933 -3.76501 6
    endloop
  endfacet
  facet normal 0 0 -1
    outer loop
      vertex 8.53478 -8.53478 6
      vertex 6.94705 -4.6438 6
      vertex 7.50583 -4.23782 6
    endloop
  endfacet
  facet normal 0 0 -1
    outer loop
      vertex 8.53478 -8.53478 6
      vertex 6.34179 -4.97655 6
      vertex 6.94705 -4.6438 6
    endloop
  endfacet
  facet normal 0 0 -1
    outer loop
      vertex 8.53478 -8.53478 6
      vertex 5.69959 -5.23081 6
      vertex 6.34179 -4.97655 6
    endloop
  endfacet
  facet normal 0 0 -1
    outer loop
      vertex 8.53478 -8.53478 6
      vertex 5.0306 -5.40258 6
      vertex 5.69959 -5.23081 6
    endloop
  endfacet
  facet normal 0 0 -1
    outer loop
      vertex 8.53478 -8.53478 6
      vertex 4.34535 -5.48915 6
      vertex 5.0306 -5.40258 6
    endloop
  endfacet
  facet normal 0 0 -1
    outer loop
      vertex 8.53478 -8.53478 6
      vertex 3.65465 -5.48915 6
      vertex 4.34535 -5.48915 6
    endloop
  endfacet
  facet normal 0 0 -1
    outer loop
      vertex 8.53478 -8.53478 6
      vertex 2.9694 -5.40258 6
      vertex 3.65465 -5.48915 6
    endloop
  endfacet
  facet normal 0 0 -1
    outer loop
      vertex -8.53478 -8.53478 6
      vertex 2.9694 -5.40258 6
      vertex 8.53478 -8.53478 6
    endloop
  endfacet
  facet normal -0 0 -1
    outer loop
      vertex 2.9694 -5.40258 6
      vertex -8.53478 -8.53478 6
      vertex 2.30041 -5.23081 6
    endloop
  endfacet
  facet normal -0 0 -1
    outer loop
      vertex -1.45663 -0.689332 6
      vertex -8.53478 -8.53478 6
      vertex -1.5 0 6
    endloop
  endfacet
  facet normal -0 0 -1
    outer loop
      vertex -1.32721 -1.36779 6
      vertex -8.53478 -8.53478 6
      vertex -1.45663 -0.689332 6
    endloop
  endfacet
  facet normal -0 0 -1
    outer loop
      vertex -1.11377 -2.02468 6
      vertex -8.53478 -8.53478 6
      vertex -1.32721 -1.36779 6
    endloop
  endfacet
  facet normal -0 0 -1
    outer loop
      vertex -0.819686 -2.64964 6
      vertex -8.53478 -8.53478 6
      vertex -1.11377 -2.02468 6
    endloop
  endfacet
  facet normal -0 0 -1
    outer loop
      vertex -0.449593 -3.23282 6
      vertex -8.53478 -8.53478 6
      vertex -0.819686 -2.64964 6
    endloop
  endfacet
  facet normal -0 0 -1
    outer loop
      vertex -0.00932693 -3.76501 6
      vertex -8.53478 -8.53478 6
      vertex -0.449593 -3.23282 6
    endloop
  endfacet
  facet normal -0 0 -1
    outer loop
      vertex 0.494167 -4.23782 6
      vertex -8.53478 -8.53478 6
      vertex -0.00932693 -3.76501 6
    endloop
  endfacet
  facet normal -0 0 -1
    outer loop
      vertex 1.05295 -4.6438 6
      vertex -8.53478 -8.53478 6
      vertex 0.494167 -4.23782 6
    endloop
  endfacet
  facet normal -0 0 -1
    outer loop
      vertex 1.65821 -4.97655 6
      vertex -8.53478 -8.53478 6
      vertex 1.05295 -4.6438 6
    endloop
  endfacet
  facet normal -0 0 -1
    outer loop
      vertex 2.30041 -5.23081 6
      vertex -8.53478 -8.53478 6
      vertex 1.65821 -4.97655 6
    endloop
  endfacet
  facet normal 0 0 -1
    outer loop
      vertex 8.44959 3.23282 6
      vertex 8.53478 8.53478 6
      vertex 8.53478 3.09859 6
    endloop
  endfacet
  facet normal 0 0 -1
    outer loop
      vertex 8.00933 3.76501 6
      vertex 8.53478 8.53478 6
      vertex 8.44959 3.23282 6
    endloop
  endfacet
  facet normal 0 0 -1
    outer loop
      vertex 7.50583 4.23782 6
      vertex 8.53478 8.53478 6
      vertex 8.00933 3.76501 6
    endloop
  endfacet
  facet normal 0 0 -1
    outer loop
      vertex 6.94705 4.6438 6
      vertex 8.53478 8.53478 6
      vertex 7.50583 4.23782 6
    endloop
  endfacet
  facet normal 0 0 -1
    outer loop
      vertex 6.34179 4.97655 6
      vertex 8.53478 8.53478 6
      vertex 6.94705 4.6438 6
    endloop
  endfacet
  facet normal 0 0 -1
    outer loop
      vertex 5.69959 5.23081 6
      vertex 8.53478 8.53478 6
      vertex 6.34179 4.97655 6
    endloop
  endfacet
  facet normal 0 0 -1
    outer loop
      vertex 5.0306 5.40258 6
      vertex 8.53478 8.53478 6
      vertex 5.69959 5.23081 6
    endloop
  endfacet
  facet normal 0 0 -1
    outer loop
      vertex 4.34535 5.48915 6
      vertex 8.53478 8.53478 6
      vertex 5.0306 5.40258 6
    endloop
  endfacet
  facet normal 0 0 -1
    outer loop
      vertex 3.65465 5.48915 6
      vertex 8.53478 8.53478 6
      vertex 4.34535 5.48915 6
    endloop
  endfacet
  facet normal 0 0 -1
    outer loop
      vertex 2.9694 5.40258 6
      vertex 8.53478 8.53478 6
      vertex 3.65465 5.48915 6
    endloop
  endfacet
  facet normal 0 0 -1
    outer loop
      vertex -8.53478 8.53478 6
      vertex 2.9694 5.40258 6
      vertex 2.30041 5.23081 6
    endloop
  endfacet
  facet normal 0 0 -1
    outer loop
      vertex -8.53478 8.53478 6
      vertex 2.30041 5.23081 6
      vertex 1.65821 4.97655 6
    endloop
  endfacet
  facet normal 0 0 -1
    outer loop
      vertex -8.53478 8.53478 6
      vertex -1.5 0 6
      vertex -8.53478 -8.53478 6
    endloop
  endfacet
  facet normal 0 0 -1
    outer loop
      vertex -1.5 0 6
      vertex -8.53478 8.53478 6
      vertex -1.45663 0.689332 6
    endloop
  endfacet
  facet normal 0 0 -1
    outer loop
      vertex -1.45663 0.689332 6
      vertex -8.53478 8.53478 6
      vertex -1.32721 1.36779 6
    endloop
  endfacet
  facet normal 0 0 -1
    outer loop
      vertex -1.32721 1.36779 6
      vertex -8.53478 8.53478 6
      vertex -1.11377 2.02468 6
    endloop
  endfacet
  facet normal 0 0 -1
    outer loop
      vertex -1.11377 2.02468 6
      vertex -8.53478 8.53478 6
      vertex -0.819686 2.64964 6
    endloop
  endfacet
  facet normal 0 0 -1
    outer loop
      vertex 2.9694 5.40258 6
      vertex -8.53478 8.53478 6
      vertex 8.53478 8.53478 6
    endloop
  endfacet
  facet normal 0 0 -1
    outer loop
      vertex 1.05295 4.6438 6
      vertex -8.53478 8.53478 6
      vertex 1.65821 4.97655 6
    endloop
  endfacet
  facet normal 0 0 -1
    outer loop
      vertex 0.494167 4.23782 6
      vertex -8.53478 8.53478 6
      vertex 1.05295 4.6438 6
    endloop
  endfacet
  facet normal 0 0 -1
    outer loop
      vertex -0.00932693 3.76501 6
      vertex -8.53478 8.53478 6
      vertex 0.494167 4.23782 6
    endloop
  endfacet
  facet normal 0 0 -1
    outer loop
      vertex -0.449593 3.23282 6
      vertex -8.53478 8.53478 6
      vertex -0.00932693 3.76501 6
    endloop
  endfacet
  facet normal 0 0 -1
    outer loop
      vertex -0.819686 2.64964 6
      vertex -8.53478 8.53478 6
      vertex -0.449593 3.23282 6
    endloop
  endfacet
  facet normal 0 -1 0
    outer loop
      vertex -15 -20 6
      vertex 15 -20 9
      vertex -15 -20 9
    endloop
  endfacet
  facet normal 0 -1 -0
    outer loop
      vertex 15 -20 9
      vertex -15 -20 6
      vertex 15 -20 6
    endloop
  endfacet
  facet normal 0.998027 0.0627918 0
    outer loop
      vertex 9.5 0 4.07742
      vertex 9.45663 0.689332 3
      vertex 9.45663 0.689332 4.16381
    endloop
  endfacet
  facet normal 0.998027 0.0627918 0
    outer loop
      vertex 9.45663 0.689332 3
      vertex 9.5 0 4.07742
      vertex 9.5 0 3
    endloop
  endfacet
  facet normal -0.998027 0.0627918 0
    outer loop
      vertex -1.5 0 3
      vertex -1.45663 0.689332 6
      vertex -1.45663 0.689332 3
    endloop
  endfacet
  facet normal -0.998027 0.0627918 0
    outer loop
      vertex -1.45663 0.689332 6
      vertex -1.5 0 3
      vertex -1.5 0 6
    endloop
  endfacet
  facet normal 0 1 -0
    outer loop
      vertex 4.34535 5.48915 3
      vertex 3.65465 5.48915 6
      vertex 4.34535 5.48915 6
    endloop
  endfacet
  facet normal 0 1 0
    outer loop
      vertex 3.65465 5.48915 6
      vertex 4.34535 5.48915 3
      vertex 3.65465 5.48915 3
    endloop
  endfacet
  facet normal 0 -1 0
    outer loop
      vertex 3.65465 -5.48915 3
      vertex 4.34535 -5.48915 6
      vertex 3.65465 -5.48915 6
    endloop
  endfacet
  facet normal 0 -1 -0
    outer loop
      vertex 4.34535 -5.48915 6
      vertex 3.65465 -5.48915 3
      vertex 4.34535 -5.48915 3
    endloop
  endfacet
  facet normal 0.684541 0.728974 -0
    outer loop
      vertex 8.00933 3.76501 3
      vertex 7.50583 4.23782 6
      vertex 8.00933 3.76501 6
    endloop
  endfacet
  facet normal 0.684541 0.728974 0
    outer loop
      vertex 7.50583 4.23782 6
      vertex 8.00933 3.76501 3
      vertex 7.50583 4.23782 3
    endloop
  endfacet
  facet normal -0.684545 0.72897 0
    outer loop
      vertex 0.494167 4.23782 3
      vertex -0.00932693 3.76501 6
      vertex 0.494167 4.23782 6
    endloop
  endfacet
  facet normal -0.684545 0.72897 0
    outer loop
      vertex -0.00932693 3.76501 6
      vertex 0.494167 4.23782 3
      vertex -0.00932693 3.76501 3
    endloop
  endfacet
  facet normal -0.368118 0.929779 0
    outer loop
      vertex 2.30041 5.23081 3
      vertex 1.65821 4.97655 6
      vertex 2.30041 5.23081 6
    endloop
  endfacet
  facet normal -0.368118 0.929779 0
    outer loop
      vertex 1.65821 4.97655 6
      vertex 2.30041 5.23081 3
      vertex 1.65821 4.97655 3
    endloop
  endfacet
  facet normal 0.770517 -0.637419 0
    outer loop
      vertex 8.00933 -3.76501 6
      vertex 8.44959 -3.23282 3
      vertex 8.44959 -3.23282 6
    endloop
  endfacet
  facet normal 0.770517 -0.637419 0
    outer loop
      vertex 8.44959 -3.23282 3
      vertex 8.00933 -3.76501 6
      vertex 8.00933 -3.76501 3
    endloop
  endfacet
  facet normal 0.904829 0.425775 0
    outer loop
      vertex 9.11377 2.02468 4.84674
      vertex 8.81969 2.64964 3
      vertex 8.81969 2.64964 5.43251
    endloop
  endfacet
  facet normal 0.904829 0.425775 0
    outer loop
      vertex 8.81969 2.64964 3
      vertex 9.11377 2.02468 4.84674
      vertex 9.11377 2.02468 3
    endloop
  endfacet
  facet normal 0.368118 0.929779 -0
    outer loop
      vertex 6.34179 4.97655 3
      vertex 5.69959 5.23081 6
      vertex 6.34179 4.97655 6
    endloop
  endfacet
  facet normal 0.368118 0.929779 0
    outer loop
      vertex 5.69959 5.23081 6
      vertex 6.34179 4.97655 3
      vertex 5.69959 5.23081 3
    endloop
  endfacet
  facet normal 0.248693 0.968582 -0
    outer loop
      vertex 5.69959 5.23081 3
      vertex 5.0306 5.40258 6
      vertex 5.69959 5.23081 6
    endloop
  endfacet
  facet normal 0.248693 0.968582 0
    outer loop
      vertex 5.0306 5.40258 6
      vertex 5.69959 5.23081 3
      vertex 5.0306 5.40258 3
    endloop
  endfacet
  facet normal 0.48176 0.876303 -0
    outer loop
      vertex 6.94705 4.6438 3
      vertex 6.34179 4.97655 6
      vertex 6.94705 4.6438 6
    endloop
  endfacet
  facet normal 0.48176 0.876303 0
    outer loop
      vertex 6.34179 4.97655 6
      vertex 6.94705 4.6438 3
      vertex 6.34179 4.97655 3
    endloop
  endfacet
  facet normal -0.904827 0.425779 0
    outer loop
      vertex -1.11377 2.02468 3
      vertex -0.819686 2.64964 6
      vertex -0.819686 2.64964 3
    endloop
  endfacet
  facet normal -0.904827 0.425779 0
    outer loop
      vertex -0.819686 2.64964 6
      vertex -1.11377 2.02468 3
      vertex -1.11377 2.02468 6
    endloop
  endfacet
  facet normal -0.770513 0.637424 0
    outer loop
      vertex -0.449593 3.23282 3
      vertex -0.00932693 3.76501 6
      vertex -0.00932693 3.76501 3
    endloop
  endfacet
  facet normal -0.770513 0.637424 0
    outer loop
      vertex -0.00932693 3.76501 6
      vertex -0.449593 3.23282 3
      vertex -0.449593 3.23282 6
    endloop
  endfacet
  facet normal -0.125337 0.992114 0
    outer loop
      vertex 3.65465 5.48915 3
      vertex 2.9694 5.40258 6
      vertex 3.65465 5.48915 6
    endloop
  endfacet
  facet normal -0.125337 0.992114 0
    outer loop
      vertex 2.9694 5.40258 6
      vertex 3.65465 5.48915 3
      vertex 2.9694 5.40258 3
    endloop
  endfacet
  facet normal 0 0 -1
    outer loop
      vertex 7 0 3
      vertex 9.5 0 3
      vertex 9.45663 -0.689332 3
    endloop
  endfacet
  facet normal 0 0 -1
    outer loop
      vertex 6.97634 -0.375999 3
      vertex 9.45663 -0.689332 3
      vertex 9.32721 -1.36779 3
    endloop
  endfacet
  facet normal 0 0 -1
    outer loop
      vertex 9.5 0 3
      vertex 7 0 3
      vertex 9.45663 0.689332 3
    endloop
  endfacet
  facet normal 0 0 -1
    outer loop
      vertex 6.90575 -0.746069 3
      vertex 9.32721 -1.36779 3
      vertex 9.11377 -2.02468 3
    endloop
  endfacet
  facet normal 0 0 -1
    outer loop
      vertex 6.97634 0.375999 3
      vertex 9.45663 0.689332 3
      vertex 7 0 3
    endloop
  endfacet
  facet normal 0 0 -1
    outer loop
      vertex 6.78933 -1.10437 3
      vertex 9.11377 -2.02468 3
      vertex 8.81969 -2.64964 3
    endloop
  endfacet
  facet normal -0 0 -1
    outer loop
      vertex 9.45663 0.689332 3
      vertex 6.97634 0.375999 3
      vertex 9.32721 1.36779 3
    endloop
  endfacet
  facet normal 0 0 -1
    outer loop
      vertex 6.62892 -1.44526 3
      vertex 8.81969 -2.64964 3
      vertex 8.44959 -3.23282 3
    endloop
  endfacet
  facet normal 0 0 -1
    outer loop
      vertex 6.90575 0.746069 3
      vertex 9.32721 1.36779 3
      vertex 6.97634 0.375999 3
    endloop
  endfacet
  facet normal 0 0 -1
    outer loop
      vertex 6.42705 -1.76336 3
      vertex 8.44959 -3.23282 3
      vertex 8.00933 -3.76501 3
    endloop
  endfacet
  facet normal -0 0 -1
    outer loop
      vertex 9.32721 1.36779 3
      vertex 6.90575 0.746069 3
      vertex 9.11377 2.02468 3
    endloop
  endfacet
  facet normal 0 0 -1
    outer loop
      vertex 6.18691 -2.05364 3
      vertex 8.00933 -3.76501 3
      vertex 7.50583 -4.23782 3
    endloop
  endfacet
  facet normal 0 0 -1
    outer loop
      vertex 6.78933 1.10437 3
      vertex 9.11377 2.02468 3
      vertex 6.90575 0.746069 3
    endloop
  endfacet
  facet normal -0 0 -1
    outer loop
      vertex 9.11377 2.02468 3
      vertex 6.78933 1.10437 3
      vertex 8.81969 2.64964 3
    endloop
  endfacet
  facet normal 0 0 -1
    outer loop
      vertex 9.45663 -0.689332 3
      vertex 6.97634 -0.375999 3
      vertex 7 0 3
    endloop
  endfacet
  facet normal 0 0 -1
    outer loop
      vertex 5.91227 -2.31154 3
      vertex 7.50583 -4.23782 3
      vertex 6.94705 -4.6438 3
    endloop
  endfacet
  facet normal 0 0 -1
    outer loop
      vertex 9.32721 -1.36779 3
      vertex 6.90575 -0.746069 3
      vertex 6.97634 -0.375999 3
    endloop
  endfacet
  facet normal 0 0 -1
    outer loop
      vertex 9.11377 -2.02468 3
      vertex 6.78933 -1.10437 3
      vertex 6.90575 -0.746069 3
    endloop
  endfacet
  facet normal 0 0 -1
    outer loop
      vertex 8.81969 -2.64964 3
      vertex 6.62892 -1.44526 3
      vertex 6.78933 -1.10437 3
    endloop
  endfacet
  facet normal 0 0 -1
    outer loop
      vertex 8.44959 -3.23282 3
      vertex 6.42705 -1.76336 3
      vertex 6.62892 -1.44526 3
    endloop
  endfacet
  facet normal 0 0 -1
    outer loop
      vertex 5.60748 -2.53298 3
      vertex 6.94705 -4.6438 3
      vertex 6.34179 -4.97655 3
    endloop
  endfacet
  facet normal 0 0 -1
    outer loop
      vertex 8.00933 -3.76501 3
      vertex 6.18691 -2.05364 3
      vertex 6.42705 -1.76336 3
    endloop
  endfacet
  facet normal 0 0 -1
    outer loop
      vertex 7.50583 -4.23782 3
      vertex 5.91227 -2.31154 3
      vertex 6.18691 -2.05364 3
    endloop
  endfacet
  facet normal 0 0 -1
    outer loop
      vertex 5.27734 -2.71448 3
      vertex 6.34179 -4.97655 3
      vertex 5.69959 -5.23081 3
    endloop
  endfacet
  facet normal 0 0 -1
    outer loop
      vertex 6.94705 -4.6438 3
      vertex 5.60748 -2.53298 3
      vertex 5.91227 -2.31154 3
    endloop
  endfacet
  facet normal 0 0 -1
    outer loop
      vertex 6.34179 -4.97655 3
      vertex 5.27734 -2.71448 3
      vertex 5.60748 -2.53298 3
    endloop
  endfacet
  facet normal 0 0 -1
    outer loop
      vertex 4.92705 -2.85317 3
      vertex 5.69959 -5.23081 3
      vertex 5.0306 -5.40258 3
    endloop
  endfacet
  facet normal 0 0 -1
    outer loop
      vertex 5.69959 -5.23081 3
      vertex 4.92705 -2.85317 3
      vertex 5.27734 -2.71448 3
    endloop
  endfacet
  facet normal 0 0 -1
    outer loop
      vertex 5.0306 -5.40258 3
      vertex 4.56214 -2.94686 3
      vertex 4.92705 -2.85317 3
    endloop
  endfacet
  facet normal 0 0 -1
    outer loop
      vertex 4.34535 -5.48915 3
      vertex 4.56214 -2.94686 3
      vertex 5.0306 -5.40258 3
    endloop
  endfacet
  facet normal 0 0 -1
    outer loop
      vertex 4.34535 -5.48915 3
      vertex 4.18837 -2.99408 3
      vertex 4.56214 -2.94686 3
    endloop
  endfacet
  facet normal 0 0 -1
    outer loop
      vertex 4.34535 -5.48915 3
      vertex 3.81163 -2.99408 3
      vertex 4.18837 -2.99408 3
    endloop
  endfacet
  facet normal 0 0 -1
    outer loop
      vertex 3.65465 -5.48915 3
      vertex 3.81163 -2.99408 3
      vertex 4.34535 -5.48915 3
    endloop
  endfacet
  facet normal 0 0 -1
    outer loop
      vertex 3.65465 -5.48915 3
      vertex 3.43786 -2.94686 3
      vertex 3.81163 -2.99408 3
    endloop
  endfacet
  facet normal 0 0 -1
    outer loop
      vertex 2.9694 -5.40258 3
      vertex 3.43786 -2.94686 3
      vertex 3.65465 -5.48915 3
    endloop
  endfacet
  facet normal -0 0 -1
    outer loop
      vertex 3.43786 -2.94686 3
      vertex 2.9694 -5.40258 3
      vertex 3.07295 -2.85317 3
    endloop
  endfacet
  facet normal 0 0 -1
    outer loop
      vertex 2.30041 -5.23081 3
      vertex 3.07295 -2.85317 3
      vertex 2.9694 -5.40258 3
    endloop
  endfacet
  facet normal -0 0 -1
    outer loop
      vertex 3.07295 -2.85317 3
      vertex 2.30041 -5.23081 3
      vertex 2.72266 -2.71448 3
    endloop
  endfacet
  facet normal 0 0 -1
    outer loop
      vertex 1.65821 -4.97655 3
      vertex 2.72266 -2.71448 3
      vertex 2.30041 -5.23081 3
    endloop
  endfacet
  facet normal -0 0 -1
    outer loop
      vertex 2.72266 -2.71448 3
      vertex 1.65821 -4.97655 3
      vertex 2.39252 -2.53298 3
    endloop
  endfacet
  facet normal 0 0 -1
    outer loop
      vertex 1.05295 -4.6438 3
      vertex 2.39252 -2.53298 3
      vertex 1.65821 -4.97655 3
    endloop
  endfacet
  facet normal -0 0 -1
    outer loop
      vertex 2.39252 -2.53298 3
      vertex 1.05295 -4.6438 3
      vertex 2.08773 -2.31154 3
    endloop
  endfacet
  facet normal 0 0 -1
    outer loop
      vertex 0.494167 -4.23782 3
      vertex 2.08773 -2.31154 3
      vertex 1.05295 -4.6438 3
    endloop
  endfacet
  facet normal -0 0 -1
    outer loop
      vertex 2.08773 -2.31154 3
      vertex 0.494167 -4.23782 3
      vertex 1.81309 -2.05364 3
    endloop
  endfacet
  facet normal 0 0 -1
    outer loop
      vertex -0.00932693 -3.76501 3
      vertex 1.81309 -2.05364 3
      vertex 0.494167 -4.23782 3
    endloop
  endfacet
  facet normal -0 0 -1
    outer loop
      vertex 1.81309 -2.05364 3
      vertex -0.00932693 -3.76501 3
      vertex 1.57295 -1.76336 3
    endloop
  endfacet
  facet normal 0 0 -1
    outer loop
      vertex -0.449593 -3.23282 3
      vertex 1.57295 -1.76336 3
      vertex -0.00932693 -3.76501 3
    endloop
  endfacet
  facet normal -0 0 -1
    outer loop
      vertex 1.57295 -1.76336 3
      vertex -0.449593 -3.23282 3
      vertex 1.37108 -1.44526 3
    endloop
  endfacet
  facet normal 0 0 -1
    outer loop
      vertex -0.819686 -2.64964 3
      vertex 1.37108 -1.44526 3
      vertex -0.449593 -3.23282 3
    endloop
  endfacet
  facet normal -0 0 -1
    outer loop
      vertex 1.37108 -1.44526 3
      vertex -0.819686 -2.64964 3
      vertex 1.21067 -1.10437 3
    endloop
  endfacet
  facet normal 0 0 -1
    outer loop
      vertex 6.62892 1.44526 3
      vertex 8.81969 2.64964 3
      vertex 6.78933 1.10437 3
    endloop
  endfacet
  facet normal -0 0 -1
    outer loop
      vertex 8.81969 2.64964 3
      vertex 6.62892 1.44526 3
      vertex 8.44959 3.23282 3
    endloop
  endfacet
  facet normal 0 0 -1
    outer loop
      vertex 6.42705 1.76336 3
      vertex 8.44959 3.23282 3
      vertex 6.62892 1.44526 3
    endloop
  endfacet
  facet normal -0 0 -1
    outer loop
      vertex 8.44959 3.23282 3
      vertex 6.42705 1.76336 3
      vertex 8.00933 3.76501 3
    endloop
  endfacet
  facet normal 0 0 -1
    outer loop
      vertex 6.18691 2.05364 3
      vertex 8.00933 3.76501 3
      vertex 6.42705 1.76336 3
    endloop
  endfacet
  facet normal -0 0 -1
    outer loop
      vertex 8.00933 3.76501 3
      vertex 6.18691 2.05364 3
      vertex 7.50583 4.23782 3
    endloop
  endfacet
  facet normal 0 0 -1
    outer loop
      vertex 5.91227 2.31154 3
      vertex 7.50583 4.23782 3
      vertex 6.18691 2.05364 3
    endloop
  endfacet
  facet normal -0 0 -1
    outer loop
      vertex 7.50583 4.23782 3
      vertex 5.91227 2.31154 3
      vertex 6.94705 4.6438 3
    endloop
  endfacet
  facet normal 0 0 -1
    outer loop
      vertex 5.60748 2.53298 3
      vertex 6.94705 4.6438 3
      vertex 5.91227 2.31154 3
    endloop
  endfacet
  facet normal -0 0 -1
    outer loop
      vertex 6.94705 4.6438 3
      vertex 5.60748 2.53298 3
      vertex 6.34179 4.97655 3
    endloop
  endfacet
  facet normal 0 0 -1
    outer loop
      vertex 5.27734 2.71448 3
      vertex 6.34179 4.97655 3
      vertex 5.60748 2.53298 3
    endloop
  endfacet
  facet normal -0 0 -1
    outer loop
      vertex 6.34179 4.97655 3
      vertex 5.27734 2.71448 3
      vertex 5.69959 5.23081 3
    endloop
  endfacet
  facet normal 0 0 -1
    outer loop
      vertex 4.92705 2.85317 3
      vertex 5.69959 5.23081 3
      vertex 5.27734 2.71448 3
    endloop
  endfacet
  facet normal -0 0 -1
    outer loop
      vertex 5.69959 5.23081 3
      vertex 4.92705 2.85317 3
      vertex 5.0306 5.40258 3
    endloop
  endfacet
  facet normal 0 0 -1
    outer loop
      vertex 4.56214 2.94686 3
      vertex 5.0306 5.40258 3
      vertex 4.92705 2.85317 3
    endloop
  endfacet
  facet normal 0 0 -1
    outer loop
      vertex 4.56214 2.94686 3
      vertex 4.34535 5.48915 3
      vertex 5.0306 5.40258 3
    endloop
  endfacet
  facet normal 0 0 -1
    outer loop
      vertex 4.18837 2.99408 3
      vertex 4.34535 5.48915 3
      vertex 4.56214 2.94686 3
    endloop
  endfacet
  facet normal 0 0 -1
    outer loop
      vertex 3.81163 2.99408 3
      vertex 4.34535 5.48915 3
      vertex 4.18837 2.99408 3
    endloop
  endfacet
  facet normal 0 0 -1
    outer loop
      vertex 3.81163 2.99408 3
      vertex 3.65465 5.48915 3
      vertex 4.34535 5.48915 3
    endloop
  endfacet
  facet normal 0 0 -1
    outer loop
      vertex 3.43786 2.94686 3
      vertex 3.65465 5.48915 3
      vertex 3.81163 2.99408 3
    endloop
  endfacet
  facet normal 0 0 -1
    outer loop
      vertex 2.9694 5.40258 3
      vertex 3.43786 2.94686 3
      vertex 3.07295 2.85317 3
    endloop
  endfacet
  facet normal 0 0 -1
    outer loop
      vertex 3.43786 2.94686 3
      vertex 2.9694 5.40258 3
      vertex 3.65465 5.48915 3
    endloop
  endfacet
  facet normal 0 0 -1
    outer loop
      vertex 2.30041 5.23081 3
      vertex 3.07295 2.85317 3
      vertex 2.72266 2.71448 3
    endloop
  endfacet
  facet normal 0 0 -1
    outer loop
      vertex 1.65821 4.97655 3
      vertex 2.72266 2.71448 3
      vertex 2.39252 2.53298 3
    endloop
  endfacet
  facet normal 0 0 -1
    outer loop
      vertex 3.07295 2.85317 3
      vertex 2.30041 5.23081 3
      vertex 2.9694 5.40258 3
    endloop
  endfacet
  facet normal 0 0 -1
    outer loop
      vertex 1.05295 4.6438 3
      vertex 2.39252 2.53298 3
      vertex 2.08773 2.31154 3
    endloop
  endfacet
  facet normal 0 0 -1
    outer loop
      vertex 0.494167 4.23782 3
      vertex 2.08773 2.31154 3
      vertex 1.81309 2.05364 3
    endloop
  endfacet
  facet normal 0 0 -1
    outer loop
      vertex 2.72266 2.71448 3
      vertex 1.65821 4.97655 3
      vertex 2.30041 5.23081 3
    endloop
  endfacet
  facet normal 0 0 -1
    outer loop
      vertex -0.00932693 3.76501 3
      vertex 1.81309 2.05364 3
      vertex 1.57295 1.76336 3
    endloop
  endfacet
  facet normal 0 0 -1
    outer loop
      vertex -0.449593 3.23282 3
      vertex 1.57295 1.76336 3
      vertex 1.37108 1.44526 3
    endloop
  endfacet
  facet normal 0 0 -1
    outer loop
      vertex -0.819686 2.64964 3
      vertex 1.37108 1.44526 3
      vertex 1.21067 1.10437 3
    endloop
  endfacet
  facet normal 0 0 -1
    outer loop
      vertex -1.11377 2.02468 3
      vertex 1.21067 1.10437 3
      vertex 1.09425 0.746069 3
    endloop
  endfacet
  facet normal 0 0 -1
    outer loop
      vertex 2.39252 2.53298 3
      vertex 1.05295 4.6438 3
      vertex 1.65821 4.97655 3
    endloop
  endfacet
  facet normal 0 0 -1
    outer loop
      vertex -1.32721 1.36779 3
      vertex 1.09425 0.746069 3
      vertex 1.02366 0.375999 3
    endloop
  endfacet
  facet normal 0 0 -1
    outer loop
      vertex -1.45663 0.689332 3
      vertex 1.02366 0.375999 3
      vertex 1 0 3
    endloop
  endfacet
  facet normal 0 0 -1
    outer loop
      vertex -1.11377 -2.02468 3
      vertex 1.21067 -1.10437 3
      vertex -0.819686 -2.64964 3
    endloop
  endfacet
  facet normal 0 0 -1
    outer loop
      vertex 2.08773 2.31154 3
      vertex 0.494167 4.23782 3
      vertex 1.05295 4.6438 3
    endloop
  endfacet
  facet normal -0 0 -1
    outer loop
      vertex 1.21067 -1.10437 3
      vertex -1.11377 -2.02468 3
      vertex 1.09425 -0.746069 3
    endloop
  endfacet
  facet normal 0 0 -1
    outer loop
      vertex 1.81309 2.05364 3
      vertex -0.00932693 3.76501 3
      vertex 0.494167 4.23782 3
    endloop
  endfacet
  facet normal 0 0 -1
    outer loop
      vertex -1.32721 -1.36779 3
      vertex 1.09425 -0.746069 3
      vertex -1.11377 -2.02468 3
    endloop
  endfacet
  facet normal 0 0 -1
    outer loop
      vertex 1.57295 1.76336 3
      vertex -0.449593 3.23282 3
      vertex -0.00932693 3.76501 3
    endloop
  endfacet
  facet normal -0 0 -1
    outer loop
      vertex 1.09425 -0.746069 3
      vertex -1.32721 -1.36779 3
      vertex 1.02366 -0.375999 3
    endloop
  endfacet
  facet normal 0 0 -1
    outer loop
      vertex 1.37108 1.44526 3
      vertex -0.819686 2.64964 3
      vertex -0.449593 3.23282 3
    endloop
  endfacet
  facet normal 0 0 -1
    outer loop
      vertex -1.45663 -0.689332 3
      vertex 1.02366 -0.375999 3
      vertex -1.32721 -1.36779 3
    endloop
  endfacet
  facet normal 0 0 -1
    outer loop
      vertex 1.21067 1.10437 3
      vertex -1.11377 2.02468 3
      vertex -0.819686 2.64964 3
    endloop
  endfacet
  facet normal -0 0 -1
    outer loop
      vertex 1.02366 -0.375999 3
      vertex -1.45663 -0.689332 3
      vertex 1 0 3
    endloop
  endfacet
  facet normal 0 0 -1
    outer loop
      vertex 1.09425 0.746069 3
      vertex -1.32721 1.36779 3
      vertex -1.11377 2.02468 3
    endloop
  endfacet
  facet normal 0 0 -1
    outer loop
      vertex -1.5 0 3
      vertex 1 0 3
      vertex -1.45663 -0.689332 3
    endloop
  endfacet
  facet normal 0 0 -1
    outer loop
      vertex 1.02366 0.375999 3
      vertex -1.45663 0.689332 3
      vertex -1.32721 1.36779 3
    endloop
  endfacet
  facet normal 0 0 -1
    outer loop
      vertex 1 0 3
      vertex -1.5 0 3
      vertex -1.45663 0.689332 3
    endloop
  endfacet
  facet normal 0.125337 -0.992114 0
    outer loop
      vertex 4.34535 -5.48915 3
      vertex 5.0306 -5.40258 6
      vertex 4.34535 -5.48915 6
    endloop
  endfacet
  facet normal 0.125337 -0.992114 0
    outer loop
      vertex 5.0306 -5.40258 6
      vertex 4.34535 -5.48915 3
      vertex 5.0306 -5.40258 3
    endloop
  endfacet
  facet normal 0.951055 0.309022 0
    outer loop
      vertex 9.32721 1.36779 4.4216
      vertex 9.11377 2.02468 3
      vertex 9.11377 2.02468 4.84674
    endloop
  endfacet
  facet normal 0.951055 0.309022 0
    outer loop
      vertex 9.11377 2.02468 3
      vertex 9.32721 1.36779 4.4216
      vertex 9.32721 1.36779 3
    endloop
  endfacet
  facet normal 0.982288 0.187377 0
    outer loop
      vertex 9.45663 0.689332 4.16381
      vertex 9.32721 1.36779 3
      vertex 9.32721 1.36779 4.4216
    endloop
  endfacet
  facet normal 0.982288 0.187377 0
    outer loop
      vertex 9.32721 1.36779 3
      vertex 9.45663 0.689332 4.16381
      vertex 9.45663 0.689332 3
    endloop
  endfacet
  facet normal 0.770517 0.637419 0
    outer loop
      vertex 8.44959 3.23282 6
      vertex 8.00933 3.76501 3
      vertex 8.00933 3.76501 6
    endloop
  endfacet
  facet normal 0.770517 0.637419 0
    outer loop
      vertex 8.00933 3.76501 3
      vertex 8.44959 3.23282 6
      vertex 8.44959 3.23282 3
    endloop
  endfacet
  facet normal 0.844314 0.535849 -2.861e-05
    outer loop
      vertex 8.81969 2.64964 5.43251
      vertex 8.44959 3.23282 6
      vertex 8.53478 3.09859 6
    endloop
  endfacet
  facet normal 0.844326 0.53583 0
    outer loop
      vertex 8.44959 3.23282 6
      vertex 8.81969 2.64964 5.43251
      vertex 8.44959 3.23282 3
    endloop
  endfacet
  facet normal 0.844326 0.53583 0
    outer loop
      vertex 8.44959 3.23282 3
      vertex 8.81969 2.64964 5.43251
      vertex 8.81969 2.64964 3
    endloop
  endfacet
  facet normal 0.125337 0.992114 -0
    outer loop
      vertex 5.0306 5.40258 3
      vertex 4.34535 5.48915 6
      vertex 5.0306 5.40258 6
    endloop
  endfacet
  facet normal 0.125337 0.992114 0
    outer loop
      vertex 4.34535 5.48915 6
      vertex 5.0306 5.40258 3
      vertex 4.34535 5.48915 3
    endloop
  endfacet
  facet normal 0.587788 0.809015 -0
    outer loop
      vertex 7.50583 4.23782 3
      vertex 6.94705 4.6438 6
      vertex 7.50583 4.23782 6
    endloop
  endfacet
  facet normal 0.587788 0.809015 0
    outer loop
      vertex 6.94705 4.6438 6
      vertex 7.50583 4.23782 3
      vertex 6.94705 4.6438 3
    endloop
  endfacet
  facet normal -0.844331 0.535822 0
    outer loop
      vertex -0.819686 2.64964 3
      vertex -0.449593 3.23282 6
      vertex -0.449593 3.23282 3
    endloop
  endfacet
  facet normal -0.844331 0.535822 0
    outer loop
      vertex -0.449593 3.23282 6
      vertex -0.819686 2.64964 3
      vertex -0.819686 2.64964 6
    endloop
  endfacet
  facet normal -0.951055 0.309022 0
    outer loop
      vertex -1.32721 1.36779 3
      vertex -1.11377 2.02468 6
      vertex -1.11377 2.02468 3
    endloop
  endfacet
  facet normal -0.951055 0.309022 0
    outer loop
      vertex -1.11377 2.02468 6
      vertex -1.32721 1.36779 3
      vertex -1.32721 1.36779 6
    endloop
  endfacet
  facet normal -0.982288 0.187377 0
    outer loop
      vertex -1.45663 0.689332 3
      vertex -1.32721 1.36779 6
      vertex -1.32721 1.36779 3
    endloop
  endfacet
  facet normal -0.982288 0.187377 0
    outer loop
      vertex -1.32721 1.36779 6
      vertex -1.45663 0.689332 3
      vertex -1.45663 0.689332 6
    endloop
  endfacet
  facet normal -0.48176 0.876303 0
    outer loop
      vertex 1.65821 4.97655 3
      vertex 1.05295 4.6438 6
      vertex 1.65821 4.97655 6
    endloop
  endfacet
  facet normal -0.48176 0.876303 0
    outer loop
      vertex 1.05295 4.6438 6
      vertex 1.65821 4.97655 3
      vertex 1.05295 4.6438 3
    endloop
  endfacet
  facet normal -0.587786 0.809017 0
    outer loop
      vertex 1.05295 4.6438 3
      vertex 0.494167 4.23782 6
      vertex 1.05295 4.6438 6
    endloop
  endfacet
  facet normal -0.587786 0.809017 0
    outer loop
      vertex 0.494167 4.23782 6
      vertex 1.05295 4.6438 3
      vertex 0.494167 4.23782 3
    endloop
  endfacet
  facet normal -0.248693 0.968582 0
    outer loop
      vertex 2.9694 5.40258 3
      vertex 2.30041 5.23081 6
      vertex 2.9694 5.40258 6
    endloop
  endfacet
  facet normal -0.248693 0.968582 0
    outer loop
      vertex 2.30041 5.23081 6
      vertex 2.9694 5.40258 3
      vertex 2.30041 5.23081 3
    endloop
  endfacet
  facet normal 0.998027 -0.0627918 0
    outer loop
      vertex 9.45663 -0.689332 3
      vertex 9.5 0 4.07742
      vertex 9.45663 -0.689332 4.16381
    endloop
  endfacet
  facet normal 0.998027 -0.0627918 0
    outer loop
      vertex 9.5 0 4.07742
      vertex 9.45663 -0.689332 3
      vertex 9.5 0 3
    endloop
  endfacet
  facet normal 0.48176 -0.876303 0
    outer loop
      vertex 6.34179 -4.97655 3
      vertex 6.94705 -4.6438 6
      vertex 6.34179 -4.97655 6
    endloop
  endfacet
  facet normal 0.48176 -0.876303 0
    outer loop
      vertex 6.94705 -4.6438 6
      vertex 6.34179 -4.97655 3
      vertex 6.94705 -4.6438 3
    endloop
  endfacet
  facet normal 0.684541 -0.728974 0
    outer loop
      vertex 7.50583 -4.23782 3
      vertex 8.00933 -3.76501 6
      vertex 7.50583 -4.23782 6
    endloop
  endfacet
  facet normal 0.684541 -0.728974 0
    outer loop
      vertex 8.00933 -3.76501 6
      vertex 7.50583 -4.23782 3
      vertex 8.00933 -3.76501 3
    endloop
  endfacet
  facet normal 0.904829 -0.425775 0
    outer loop
      vertex 8.81969 -2.64964 3
      vertex 9.11377 -2.02468 4.84674
      vertex 8.81969 -2.64964 5.43251
    endloop
  endfacet
  facet normal 0.904829 -0.425775 0
    outer loop
      vertex 9.11377 -2.02468 4.84674
      vertex 8.81969 -2.64964 3
      vertex 9.11377 -2.02468 3
    endloop
  endfacet
  facet normal -0.998027 -0.0627918 0
    outer loop
      vertex -1.45663 -0.689332 3
      vertex -1.5 0 6
      vertex -1.5 0 3
    endloop
  endfacet
  facet normal -0.998027 -0.0627918 0
    outer loop
      vertex -1.5 0 6
      vertex -1.45663 -0.689332 3
      vertex -1.45663 -0.689332 6
    endloop
  endfacet
  facet normal 0.951055 -0.309022 0
    outer loop
      vertex 9.11377 -2.02468 3
      vertex 9.32721 -1.36779 4.4216
      vertex 9.11377 -2.02468 4.84674
    endloop
  endfacet
  facet normal 0.951055 -0.309022 0
    outer loop
      vertex 9.32721 -1.36779 4.4216
      vertex 9.11377 -2.02468 3
      vertex 9.32721 -1.36779 3
    endloop
  endfacet
  facet normal -0.982288 -0.187377 0
    outer loop
      vertex -1.32721 -1.36779 3
      vertex -1.45663 -0.689332 6
      vertex -1.45663 -0.689332 3
    endloop
  endfacet
  facet normal -0.982288 -0.187377 0
    outer loop
      vertex -1.45663 -0.689332 6
      vertex -1.32721 -1.36779 3
      vertex -1.32721 -1.36779 6
    endloop
  endfacet
  facet normal -0.951055 -0.309022 0
    outer loop
      vertex -1.11377 -2.02468 3
      vertex -1.32721 -1.36779 6
      vertex -1.32721 -1.36779 3
    endloop
  endfacet
  facet normal -0.951055 -0.309022 0
    outer loop
      vertex -1.32721 -1.36779 6
      vertex -1.11377 -2.02468 3
      vertex -1.11377 -2.02468 6
    endloop
  endfacet
  facet normal 0.368118 -0.929779 0
    outer loop
      vertex 5.69959 -5.23081 3
      vertex 6.34179 -4.97655 6
      vertex 5.69959 -5.23081 6
    endloop
  endfacet
  facet normal 0.368118 -0.929779 0
    outer loop
      vertex 6.34179 -4.97655 6
      vertex 5.69959 -5.23081 3
      vertex 6.34179 -4.97655 3
    endloop
  endfacet
  facet normal 0.248693 -0.968582 0
    outer loop
      vertex 5.0306 -5.40258 3
      vertex 5.69959 -5.23081 6
      vertex 5.0306 -5.40258 6
    endloop
  endfacet
  facet normal 0.248693 -0.968582 0
    outer loop
      vertex 5.69959 -5.23081 6
      vertex 5.0306 -5.40258 3
      vertex 5.69959 -5.23081 3
    endloop
  endfacet
  facet normal 0.982288 -0.187377 0
    outer loop
      vertex 9.32721 -1.36779 3
      vertex 9.45663 -0.689332 4.16381
      vertex 9.32721 -1.36779 4.4216
    endloop
  endfacet
  facet normal 0.982288 -0.187377 0
    outer loop
      vertex 9.45663 -0.689332 4.16381
      vertex 9.32721 -1.36779 3
      vertex 9.45663 -0.689332 3
    endloop
  endfacet
  facet normal 0.844314 -0.535849 -2.861e-05
    outer loop
      vertex 8.44959 -3.23282 6
      vertex 8.81969 -2.64964 5.43251
      vertex 8.53478 -3.09859 6
    endloop
  endfacet
  facet normal 0.844326 -0.53583 0
    outer loop
      vertex 8.81969 -2.64964 5.43251
      vertex 8.44959 -3.23282 6
      vertex 8.44959 -3.23282 3
    endloop
  endfacet
  facet normal 0.844326 -0.53583 0
    outer loop
      vertex 8.81969 -2.64964 5.43251
      vertex 8.44959 -3.23282 3
      vertex 8.81969 -2.64964 3
    endloop
  endfacet
  facet normal 0.587788 -0.809015 0
    outer loop
      vertex 6.94705 -4.6438 3
      vertex 7.50583 -4.23782 6
      vertex 6.94705 -4.6438 6
    endloop
  endfacet
  facet normal 0.587788 -0.809015 0
    outer loop
      vertex 7.50583 -4.23782 6
      vertex 6.94705 -4.6438 3
      vertex 7.50583 -4.23782 3
    endloop
  endfacet
  facet normal -0.125337 -0.992114 0
    outer loop
      vertex 2.9694 -5.40258 3
      vertex 3.65465 -5.48915 6
      vertex 2.9694 -5.40258 6
    endloop
  endfacet
  facet normal -0.125337 -0.992114 -0
    outer loop
      vertex 3.65465 -5.48915 6
      vertex 2.9694 -5.40258 3
      vertex 3.65465 -5.48915 3
    endloop
  endfacet
  facet normal -0.368118 -0.929779 0
    outer loop
      vertex 1.65821 -4.97655 3
      vertex 2.30041 -5.23081 6
      vertex 1.65821 -4.97655 6
    endloop
  endfacet
  facet normal -0.368118 -0.929779 -0
    outer loop
      vertex 2.30041 -5.23081 6
      vertex 1.65821 -4.97655 3
      vertex 2.30041 -5.23081 3
    endloop
  endfacet
  facet normal -0.248693 -0.968582 0
    outer loop
      vertex 2.30041 -5.23081 3
      vertex 2.9694 -5.40258 6
      vertex 2.30041 -5.23081 6
    endloop
  endfacet
  facet normal -0.248693 -0.968582 -0
    outer loop
      vertex 2.9694 -5.40258 6
      vertex 2.30041 -5.23081 3
      vertex 2.9694 -5.40258 3
    endloop
  endfacet
  facet normal -0.904827 -0.425779 0
    outer loop
      vertex -0.819686 -2.64964 3
      vertex -1.11377 -2.02468 6
      vertex -1.11377 -2.02468 3
    endloop
  endfacet
  facet normal -0.904827 -0.425779 0
    outer loop
      vertex -1.11377 -2.02468 6
      vertex -0.819686 -2.64964 3
      vertex -0.819686 -2.64964 6
    endloop
  endfacet
  facet normal -0.770513 -0.637424 0
    outer loop
      vertex -0.00932693 -3.76501 3
      vertex -0.449593 -3.23282 6
      vertex -0.449593 -3.23282 3
    endloop
  endfacet
  facet normal -0.770513 -0.637424 0
    outer loop
      vertex -0.449593 -3.23282 6
      vertex -0.00932693 -3.76501 3
      vertex -0.00932693 -3.76501 6
    endloop
  endfacet
  facet normal -0.684545 -0.72897 0
    outer loop
      vertex -0.00932693 -3.76501 3
      vertex 0.494167 -4.23782 6
      vertex -0.00932693 -3.76501 6
    endloop
  endfacet
  facet normal -0.684545 -0.72897 -0
    outer loop
      vertex 0.494167 -4.23782 6
      vertex -0.00932693 -3.76501 3
      vertex 0.494167 -4.23782 3
    endloop
  endfacet
  facet normal -0.587786 -0.809017 0
    outer loop
      vertex 0.494167 -4.23782 3
      vertex 1.05295 -4.6438 6
      vertex 0.494167 -4.23782 6
    endloop
  endfacet
  facet normal -0.587786 -0.809017 -0
    outer loop
      vertex 1.05295 -4.6438 6
      vertex 0.494167 -4.23782 3
      vertex 1.05295 -4.6438 3
    endloop
  endfacet
  facet normal -0.48176 -0.876303 0
    outer loop
      vertex 1.05295 -4.6438 3
      vertex 1.65821 -4.97655 6
      vertex 1.05295 -4.6438 6
    endloop
  endfacet
  facet normal -0.48176 -0.876303 -0
    outer loop
      vertex 1.65821 -4.97655 6
      vertex 1.05295 -4.6438 3
      vertex 1.65821 -4.97655 3
    endloop
  endfacet
  facet normal -0.844331 -0.535822 0
    outer loop
      vertex -0.449593 -3.23282 3
      vertex -0.819686 -2.64964 6
      vertex -0.819686 -2.64964 3
    endloop
  endfacet
  facet normal -0.844331 -0.535822 0
    outer loop
      vertex -0.819686 -2.64964 6
      vertex -0.449593 -3.23282 3
      vertex -0.449593 -3.23282 6
    endloop
  endfacet
  facet normal 0 0.908416 0.418068
    outer loop
      vertex 13.7561 13.7561 0
      vertex -10.9948 10.9948 6
      vertex 10.9948 10.9948 6
    endloop
  endfacet
  facet normal 0 0.908416 0.418068
    outer loop
      vertex -10.9948 10.9948 6
      vertex 13.7561 13.7561 0
      vertex -13.7561 13.7561 0
    endloop
  endfacet
  facet normal -0.908416 0 0.418068
    outer loop
      vertex -13.7561 13.7561 0
      vertex -10.9948 -10.9948 6
      vertex -10.9948 10.9948 6
    endloop
  endfacet
  facet normal -0.908416 0 0.418068
    outer loop
      vertex -10.9948 -10.9948 6
      vertex -13.7561 13.7561 0
      vertex -13.7561 -13.7561 0
    endloop
  endfacet
  facet normal 0 0 -1
    outer loop
      vertex 13.7561 -13.7561 0
      vertex 11.5471 -11.5471 0
      vertex 13.7561 13.7561 0
    endloop
  endfacet
  facet normal 0 0 -1
    outer loop
      vertex 13.7561 -13.7561 0
      vertex -11.5471 -11.5471 0
      vertex 11.5471 -11.5471 0
    endloop
  endfacet
  facet normal -0 0 -1
    outer loop
      vertex -11.5471 -11.5471 0
      vertex -13.7561 -13.7561 0
      vertex -11.5471 11.5471 0
    endloop
  endfacet
  facet normal 0 0 -1
    outer loop
      vertex -13.7561 -13.7561 0
      vertex -11.5471 -11.5471 0
      vertex 13.7561 -13.7561 0
    endloop
  endfacet
  facet normal 0 0 -1
    outer loop
      vertex 11.5471 11.5471 0
      vertex 13.7561 13.7561 0
      vertex 11.5471 -11.5471 0
    endloop
  endfacet
  facet normal 0 0 -1
    outer loop
      vertex -11.5471 11.5471 0
      vertex 13.7561 13.7561 0
      vertex 11.5471 11.5471 0
    endloop
  endfacet
  facet normal 0 0 -1
    outer loop
      vertex -11.5471 11.5471 0
      vertex -13.7561 13.7561 0
      vertex 13.7561 13.7561 0
    endloop
  endfacet
  facet normal 0 0 -1
    outer loop
      vertex -13.7561 13.7561 0
      vertex -11.5471 11.5471 0
      vertex -13.7561 -13.7561 0
    endloop
  endfacet
  facet normal 0 -0.908416 0.418068
    outer loop
      vertex -13.7561 -13.7561 0
      vertex 10.9948 -10.9948 6
      vertex -10.9948 -10.9948 6
    endloop
  endfacet
  facet normal 0 -0.908416 0.418068
    outer loop
      vertex 10.9948 -10.9948 6
      vertex -13.7561 -13.7561 0
      vertex 13.7561 -13.7561 0
    endloop
  endfacet
  facet normal 0.908416 -0 0.418068
    outer loop
      vertex 10.9948 -10.9948 6
      vertex 13.7561 13.7561 0
      vertex 10.9948 10.9948 6
    endloop
  endfacet
  facet normal 0.908416 0 0.418068
    outer loop
      vertex 13.7561 13.7561 0
      vertex 10.9948 -10.9948 6
      vertex 13.7561 -13.7561 0
    endloop
  endfacet
  facet normal 0 -0.893692 -0.448681
    outer loop
      vertex -11.5471 11.5471 0
      vertex 8.53478 8.53478 6
      vertex -8.53478 8.53478 6
    endloop
  endfacet
  facet normal 0 -0.893692 -0.448681
    outer loop
      vertex 8.53478 8.53478 6
      vertex -11.5471 11.5471 0
      vertex 11.5471 11.5471 0
    endloop
  endfacet
  facet normal 0.893692 0 -0.448681
    outer loop
      vertex -8.53478 -8.53478 6
      vertex -11.5471 11.5471 0
      vertex -8.53478 8.53478 6
    endloop
  endfacet
  facet normal 0.893692 0 -0.448681
    outer loop
      vertex -11.5471 11.5471 0
      vertex -8.53478 -8.53478 6
      vertex -11.5471 -11.5471 0
    endloop
  endfacet
  facet normal 0 0.893692 -0.448681
    outer loop
      vertex 11.5471 -11.5471 0
      vertex -8.53478 -8.53478 6
      vertex 8.53478 -8.53478 6
    endloop
  endfacet
  facet normal 0 0.893692 -0.448681
    outer loop
      vertex -8.53478 -8.53478 6
      vertex 11.5471 -11.5471 0
      vertex -11.5471 -11.5471 0
    endloop
  endfacet
  facet normal -0.893693 6.38323e-06 -0.448678
    outer loop
      vertex 11.5471 11.5471 0
      vertex 10.0409 4.44068 3
      vertex 8.53478 8.53478 6
    endloop
  endfacet
  facet normal -0.893741 5.61538e-05 -0.448584
    outer loop
      vertex 11.5471 11.5471 0
      vertex 10.0676 4.40839 2.9468
      vertex 10.0409 4.44068 3
    endloop
  endfacet
  facet normal -0.893686 2.45964e-07 -0.448692
    outer loop
      vertex 11.5471 11.5471 0
      vertex 10.5723 3.61315 1.94156
      vertex 10.0676 4.40839 2.9468
    endloop
  endfacet
  facet normal -0.8937 8.43554e-06 -0.448666
    outer loop
      vertex 11.5471 11.5471 0
      vertex 10.9733 2.76093 1.14279
      vertex 10.5723 3.61315 1.94156
    endloop
  endfacet
  facet normal -0.893667 -2.24591e-06 -0.448731
    outer loop
      vertex 11.5471 11.5471 0
      vertex 11.2644 1.86517 0.563057
      vertex 10.9733 2.76093 1.14279
    endloop
  endfacet
  facet normal -0.893681 -1.40276e-07 -0.448702
    outer loop
      vertex 11.5471 11.5471 0
      vertex 11.4409 0.939999 0.211522
      vertex 11.2644 1.86517 0.563057
    endloop
  endfacet
  facet normal -0.893799 5.72835e-06 -0.448467
    outer loop
      vertex 11.5471 11.5471 0
      vertex 11.5 0 0.0937232
      vertex 11.4409 0.939999 0.211522
    endloop
  endfacet
  facet normal -0.893741 -5.61538e-05 -0.448584
    outer loop
      vertex 11.5471 -11.5471 0
      vertex 10.0409 -4.44068 3
      vertex 10.0676 -4.40839 2.9468
    endloop
  endfacet
  facet normal -0.893686 -2.45964e-07 -0.448692
    outer loop
      vertex 11.5471 -11.5471 0
      vertex 10.0676 -4.40839 2.9468
      vertex 10.5723 -3.61315 1.94156
    endloop
  endfacet
  facet normal -0.8937 -8.43554e-06 -0.448666
    outer loop
      vertex 11.5471 -11.5471 0
      vertex 10.5723 -3.61315 1.94156
      vertex 10.9733 -2.76093 1.14279
    endloop
  endfacet
  facet normal -0.893693 -6.38323e-06 -0.448678
    outer loop
      vertex 10.0409 -4.44068 3
      vertex 11.5471 -11.5471 0
      vertex 8.53478 -8.53478 6
    endloop
  endfacet
  facet normal -0.893667 2.24591e-06 -0.448731
    outer loop
      vertex 11.2644 -1.86517 0.563057
      vertex 11.5471 -11.5471 0
      vertex 10.9733 -2.76093 1.14279
    endloop
  endfacet
  facet normal -0.893681 1.40276e-07 -0.448702
    outer loop
      vertex 11.4409 -0.939999 0.211522
      vertex 11.5471 -11.5471 0
      vertex 11.2644 -1.86517 0.563057
    endloop
  endfacet
  facet normal -0.893799 -5.72835e-06 -0.448467
    outer loop
      vertex 11.5 0 0.0937232
      vertex 11.5471 -11.5471 0
      vertex 11.4409 -0.939999 0.211522
    endloop
  endfacet
  facet normal -0.893516 0 -0.449031
    outer loop
      vertex 11.5471 -11.5471 0
      vertex 11.5 0 0.0937232
      vertex 11.5471 11.5471 0
    endloop
  endfacet
  facet normal -0.893697 0 -0.448672
    outer loop
      vertex 10.0409 4.44068 3
      vertex 8.53478 3.09859 6
      vertex 8.53478 8.53478 6
    endloop
  endfacet
  facet normal -0.893695 -9.30845e-06 -0.448675
    outer loop
      vertex 10.0409 4.44068 3
      vertex 8.81969 2.64964 5.43251
      vertex 8.53478 3.09859 6
    endloop
  endfacet
  facet normal -0.893697 -1.51622e-06 -0.44867
    outer loop
      vertex 10.0409 4.44068 3
      vertex 9.11377 2.02468 4.84674
      vertex 8.81969 2.64964 5.43251
    endloop
  endfacet
  facet normal -0.893696 -3.24624e-06 -0.448672
    outer loop
      vertex 10.0409 4.44068 3
      vertex 9.32721 1.36779 4.4216
      vertex 9.11377 2.02468 4.84674
    endloop
  endfacet
  facet normal -0.893699 -6.7506e-07 -0.448668
    outer loop
      vertex 10.0409 4.44068 3
      vertex 9.45663 0.689332 4.16381
      vertex 9.32721 1.36779 4.4216
    endloop
  endfacet
  facet normal -0.8937 5.12259e-07 -0.448665
    outer loop
      vertex 10.0409 4.44068 3
      vertex 9.5 0 4.07742
      vertex 9.45663 0.689332 4.16381
    endloop
  endfacet
  facet normal -0.893699 0 -0.448666
    outer loop
      vertex 10.0409 -4.44068 3
      vertex 9.5 0 4.07742
      vertex 10.0409 4.44068 3
    endloop
  endfacet
  facet normal -0.8937 -5.12259e-07 -0.448665
    outer loop
      vertex 9.5 0 4.07742
      vertex 10.0409 -4.44068 3
      vertex 9.45663 -0.689332 4.16381
    endloop
  endfacet
  facet normal -0.893699 6.7506e-07 -0.448668
    outer loop
      vertex 10.0409 -4.44068 3
      vertex 9.32721 -1.36779 4.4216
      vertex 9.45663 -0.689332 4.16381
    endloop
  endfacet
  facet normal -0.893696 3.24624e-06 -0.448672
    outer loop
      vertex 10.0409 -4.44068 3
      vertex 9.11377 -2.02468 4.84674
      vertex 9.32721 -1.36779 4.4216
    endloop
  endfacet
  facet normal -0.893697 1.51622e-06 -0.44867
    outer loop
      vertex 10.0409 -4.44068 3
      vertex 8.81969 -2.64964 5.43251
      vertex 9.11377 -2.02468 4.84674
    endloop
  endfacet
  facet normal -0.893695 9.30845e-06 -0.448675
    outer loop
      vertex 10.0409 -4.44068 3
      vertex 8.53478 -3.09859 6
      vertex 8.81969 -2.64964 5.43251
    endloop
  endfacet
  facet normal -0.893697 -0 -0.448672
    outer loop
      vertex 8.53478 -3.09859 6
      vertex 10.0409 -4.44068 3
      vertex 8.53478 -8.53478 6
    endloop
  endfacet
  facet normal -0.998029 -0.0627485 -0
    outer loop
      vertex 11.5 0 3
      vertex 11.4409 0.939999 0.211522
      vertex 11.5 0 0.0937232
    endloop
  endfacet
  facet normal -0.998029 -0.0627485 0
    outer loop
      vertex 11.4409 0.939999 0.211522
      vertex 11.5 0 3
      vertex 11.4409 0.939999 3
    endloop
  endfacet
  facet normal -0.844316 0.535846 0
    outer loop
      vertex 10.0676 -4.40839 2.9468
      vertex 10.5723 -3.61315 3
      vertex 10.5723 -3.61315 1.94156
    endloop
  endfacet
  facet normal -0.844316 0.535846 0
    outer loop
      vertex 10.5723 -3.61315 3
      vertex 10.0676 -4.40839 2.9468
      vertex 10.0676 -4.40839 3
    endloop
  endfacet
  facet normal -0.904837 -0.425758 -0
    outer loop
      vertex 10.9733 2.76093 3
      vertex 10.5723 3.61315 1.94156
      vertex 10.9733 2.76093 1.14279
    endloop
  endfacet
  facet normal -0.904837 -0.425758 0
    outer loop
      vertex 10.5723 3.61315 1.94156
      vertex 10.9733 2.76093 3
      vertex 10.5723 3.61315 3
    endloop
  endfacet
  facet normal 0 0 -1
    outer loop
      vertex 11.4409 -0.939999 3
      vertex 11.4409 0.939999 3
      vertex 11.5 0 3
    endloop
  endfacet
  facet normal 0 0 -1
    outer loop
      vertex 11.2644 -1.86517 3
      vertex 11.4409 0.939999 3
      vertex 11.4409 -0.939999 3
    endloop
  endfacet
  facet normal 0 0 -1
    outer loop
      vertex 11.2644 -1.86517 3
      vertex 11.2644 1.86517 3
      vertex 11.4409 0.939999 3
    endloop
  endfacet
  facet normal 0 0 -1
    outer loop
      vertex 10.9733 -2.76093 3
      vertex 11.2644 1.86517 3
      vertex 11.2644 -1.86517 3
    endloop
  endfacet
  facet normal 0 0 -1
    outer loop
      vertex 10.9733 -2.76093 3
      vertex 10.9733 2.76093 3
      vertex 11.2644 1.86517 3
    endloop
  endfacet
  facet normal 0 0 -1
    outer loop
      vertex 10.5723 -3.61315 3
      vertex 10.9733 2.76093 3
      vertex 10.9733 -2.76093 3
    endloop
  endfacet
  facet normal 0 0 -1
    outer loop
      vertex 10.5723 -3.61315 3
      vertex 10.5723 3.61315 3
      vertex 10.9733 2.76093 3
    endloop
  endfacet
  facet normal 0 0 -1
    outer loop
      vertex 10.0409 -4.44068 3
      vertex 10.5723 -3.61315 3
      vertex 10.0676 -4.40839 3
    endloop
  endfacet
  facet normal -0 0 -1
    outer loop
      vertex 10.5723 -3.61315 3
      vertex 10.0409 -4.44068 3
      vertex 10.5723 3.61315 3
    endloop
  endfacet
  facet normal 0 0 -1
    outer loop
      vertex 10.0409 4.44068 3
      vertex 10.5723 3.61315 3
      vertex 10.0409 -4.44068 3
    endloop
  endfacet
  facet normal 0 0 -1
    outer loop
      vertex 10.5723 3.61315 3
      vertex 10.0409 4.44068 3
      vertex 10.0676 4.40839 3
    endloop
  endfacet
  facet normal -0.951041 -0.309065 -0
    outer loop
      vertex 11.2644 1.86517 3
      vertex 10.9733 2.76093 1.14279
      vertex 11.2644 1.86517 0.563057
    endloop
  endfacet
  facet normal -0.951041 -0.309065 0
    outer loop
      vertex 10.9733 2.76093 1.14279
      vertex 11.2644 1.86517 3
      vertex 10.9733 2.76093 3
    endloop
  endfacet
  facet normal -0.982284 -0.187396 -0
    outer loop
      vertex 11.4409 0.939999 3
      vertex 11.2644 1.86517 0.563057
      vertex 11.4409 0.939999 0.211522
    endloop
  endfacet
  facet normal -0.982284 -0.187396 0
    outer loop
      vertex 11.2644 1.86517 0.563057
      vertex 11.4409 0.939999 3
      vertex 11.2644 1.86517 3
    endloop
  endfacet
  facet normal -0.770661 -0.637245 0
    outer loop
      vertex 10.0676 4.40839 2.9468
      vertex 10.0676 4.40839 3
      vertex 10.0409 4.44068 3
    endloop
  endfacet
  facet normal -0.844316 -0.535846 -0
    outer loop
      vertex 10.5723 3.61315 3
      vertex 10.0676 4.40839 2.9468
      vertex 10.5723 3.61315 1.94156
    endloop
  endfacet
  facet normal -0.844316 -0.535846 0
    outer loop
      vertex 10.0676 4.40839 2.9468
      vertex 10.5723 3.61315 3
      vertex 10.0676 4.40839 3
    endloop
  endfacet
  facet normal -0.770661 0.637245 0
    outer loop
      vertex 10.0676 -4.40839 3
      vertex 10.0676 -4.40839 2.9468
      vertex 10.0409 -4.44068 3
    endloop
  endfacet
  facet normal -0.982284 0.187396 0
    outer loop
      vertex 11.2644 -1.86517 0.563057
      vertex 11.4409 -0.939999 3
      vertex 11.4409 -0.939999 0.211522
    endloop
  endfacet
  facet normal -0.982284 0.187396 0
    outer loop
      vertex 11.4409 -0.939999 3
      vertex 11.2644 -1.86517 0.563057
      vertex 11.2644 -1.86517 3
    endloop
  endfacet
  facet normal -0.904837 0.425758 0
    outer loop
      vertex 10.5723 -3.61315 1.94156
      vertex 10.9733 -2.76093 3
      vertex 10.9733 -2.76093 1.14279
    endloop
  endfacet
  facet normal -0.904837 0.425758 0
    outer loop
      vertex 10.9733 -2.76093 3
      vertex 10.5723 -3.61315 1.94156
      vertex 10.5723 -3.61315 3
    endloop
  endfacet
  facet normal -0.998029 0.0627485 0
    outer loop
      vertex 11.4409 -0.939999 0.211522
      vertex 11.5 0 3
      vertex 11.5 0 0.0937232
    endloop
  endfacet
  facet normal -0.998029 0.0627485 0
    outer loop
      vertex 11.5 0 3
      vertex 11.4409 -0.939999 0.211522
      vertex 11.4409 -0.939999 3
    endloop
  endfacet
  facet normal -0.951041 0.309065 0
    outer loop
      vertex 10.9733 -2.76093 1.14279
      vertex 11.2644 -1.86517 3
      vertex 11.2644 -1.86517 0.563057
    endloop
  endfacet
  facet normal -0.951041 0.309065 0
    outer loop
      vertex 11.2644 -1.86517 3
      vertex 10.9733 -2.76093 1.14279
      vertex 10.9733 -2.76093 3
    endloop
  endfacet
  facet normal -0.998026 -0.0628015 0
    outer loop
      vertex 7 0 3
      vertex 6.97634 0.375999 9
      vertex 6.97634 0.375999 3
    endloop
  endfacet
  facet normal -0.998026 -0.0628015 0
    outer loop
      vertex 6.97634 0.375999 9
      vertex 7 0 3
      vertex 7 0 9
    endloop
  endfacet
  facet normal 0.125338 -0.992114 0
    outer loop
      vertex 3.43786 2.94686 3
      vertex 3.81163 2.99408 9
      vertex 3.43786 2.94686 9
    endloop
  endfacet
  facet normal 0.125338 -0.992114 0
    outer loop
      vertex 3.81163 2.99408 9
      vertex 3.43786 2.94686 3
      vertex 3.81163 2.99408 3
    endloop
  endfacet
  facet normal -0.125338 0.992114 0
    outer loop
      vertex 4.56214 -2.94686 3
      vertex 4.18837 -2.99408 9
      vertex 4.56214 -2.94686 9
    endloop
  endfacet
  facet normal -0.125338 0.992114 0
    outer loop
      vertex 4.18837 -2.99408 9
      vertex 4.56214 -2.94686 3
      vertex 4.18837 -2.99408 3
    endloop
  endfacet
  facet normal -0.770514 0.637423 0
    outer loop
      vertex 6.18691 -2.05364 3
      vertex 6.42705 -1.76336 9
      vertex 6.42705 -1.76336 3
    endloop
  endfacet
  facet normal -0.770514 0.637423 0
    outer loop
      vertex 6.42705 -1.76336 9
      vertex 6.18691 -2.05364 3
      vertex 6.18691 -2.05364 9
    endloop
  endfacet
  facet normal -0.684541 -0.728974 0
    outer loop
      vertex 5.91227 2.31154 3
      vertex 6.18691 2.05364 9
      vertex 5.91227 2.31154 9
    endloop
  endfacet
  facet normal -0.684541 -0.728974 -0
    outer loop
      vertex 6.18691 2.05364 9
      vertex 5.91227 2.31154 3
      vertex 6.18691 2.05364 3
    endloop
  endfacet
  facet normal 0.770514 -0.637423 0
    outer loop
      vertex 1.57295 1.76336 9
      vertex 1.81309 2.05364 3
      vertex 1.81309 2.05364 9
    endloop
  endfacet
  facet normal 0.770514 -0.637423 0
    outer loop
      vertex 1.81309 2.05364 3
      vertex 1.57295 1.76336 9
      vertex 1.57295 1.76336 3
    endloop
  endfacet
  facet normal 0.481762 -0.876302 0
    outer loop
      vertex 2.39252 2.53298 3
      vertex 2.72266 2.71448 9
      vertex 2.39252 2.53298 9
    endloop
  endfacet
  facet normal 0.481762 -0.876302 0
    outer loop
      vertex 2.72266 2.71448 9
      vertex 2.39252 2.53298 3
      vertex 2.72266 2.71448 3
    endloop
  endfacet
  facet normal -0.951056 0.309019 0
    outer loop
      vertex 6.78933 -1.10437 3
      vertex 6.90575 -0.746069 9
      vertex 6.90575 -0.746069 3
    endloop
  endfacet
  facet normal -0.951056 0.309019 0
    outer loop
      vertex 6.90575 -0.746069 9
      vertex 6.78933 -1.10437 3
      vertex 6.78933 -1.10437 9
    endloop
  endfacet
  facet normal -0.904828 -0.425778 0
    outer loop
      vertex 6.78933 1.10437 3
      vertex 6.62892 1.44526 9
      vertex 6.62892 1.44526 3
    endloop
  endfacet
  facet normal -0.904828 -0.425778 0
    outer loop
      vertex 6.62892 1.44526 9
      vertex 6.78933 1.10437 3
      vertex 6.78933 1.10437 9
    endloop
  endfacet
  facet normal -0.98229 -0.187369 0
    outer loop
      vertex 6.97634 0.375999 3
      vertex 6.90575 0.746069 9
      vertex 6.90575 0.746069 3
    endloop
  endfacet
  facet normal -0.98229 -0.187369 0
    outer loop
      vertex 6.90575 0.746069 9
      vertex 6.97634 0.375999 3
      vertex 6.97634 0.375999 9
    endloop
  endfacet
  facet normal -0.368125 -0.929776 0
    outer loop
      vertex 4.92705 2.85317 3
      vertex 5.27734 2.71448 9
      vertex 4.92705 2.85317 9
    endloop
  endfacet
  facet normal -0.368125 -0.929776 -0
    outer loop
      vertex 5.27734 2.71448 9
      vertex 4.92705 2.85317 3
      vertex 5.27734 2.71448 3
    endloop
  endfacet
  facet normal -0.58778 -0.809021 0
    outer loop
      vertex 5.60748 2.53298 3
      vertex 5.91227 2.31154 9
      vertex 5.60748 2.53298 9
    endloop
  endfacet
  facet normal -0.58778 -0.809021 -0
    outer loop
      vertex 5.91227 2.31154 9
      vertex 5.60748 2.53298 3
      vertex 5.91227 2.31154 3
    endloop
  endfacet
  facet normal 0.951056 -0.309019 0
    outer loop
      vertex 1.09425 0.746069 9
      vertex 1.21067 1.10437 3
      vertex 1.21067 1.10437 9
    endloop
  endfacet
  facet normal 0.951056 -0.309019 0
    outer loop
      vertex 1.21067 1.10437 3
      vertex 1.09425 0.746069 9
      vertex 1.09425 0.746069 3
    endloop
  endfacet
  facet normal 0.844331 -0.535822 0
    outer loop
      vertex 1.37108 1.44526 9
      vertex 1.57295 1.76336 3
      vertex 1.57295 1.76336 9
    endloop
  endfacet
  facet normal 0.844331 -0.535822 0
    outer loop
      vertex 1.57295 1.76336 3
      vertex 1.37108 1.44526 9
      vertex 1.37108 1.44526 3
    endloop
  endfacet
  facet normal 0.58778 -0.809021 0
    outer loop
      vertex 2.08773 2.31154 3
      vertex 2.39252 2.53298 9
      vertex 2.08773 2.31154 9
    endloop
  endfacet
  facet normal 0.58778 -0.809021 0
    outer loop
      vertex 2.39252 2.53298 9
      vertex 2.08773 2.31154 3
      vertex 2.39252 2.53298 3
    endloop
  endfacet
  facet normal 0.248683 -0.968585 0
    outer loop
      vertex 3.07295 2.85317 3
      vertex 3.43786 2.94686 9
      vertex 3.07295 2.85317 9
    endloop
  endfacet
  facet normal 0.248683 -0.968585 0
    outer loop
      vertex 3.43786 2.94686 9
      vertex 3.07295 2.85317 3
      vertex 3.43786 2.94686 3
    endloop
  endfacet
  facet normal -0.248683 0.968585 0
    outer loop
      vertex 4.92705 -2.85317 3
      vertex 4.56214 -2.94686 9
      vertex 4.92705 -2.85317 9
    endloop
  endfacet
  facet normal -0.248683 0.968585 0
    outer loop
      vertex 4.56214 -2.94686 9
      vertex 4.92705 -2.85317 3
      vertex 4.56214 -2.94686 3
    endloop
  endfacet
  facet normal -0.951056 -0.309019 0
    outer loop
      vertex 6.90575 0.746069 3
      vertex 6.78933 1.10437 9
      vertex 6.78933 1.10437 3
    endloop
  endfacet
  facet normal -0.951056 -0.309019 0
    outer loop
      vertex 6.78933 1.10437 9
      vertex 6.90575 0.746069 3
      vertex 6.90575 0.746069 9
    endloop
  endfacet
  facet normal -0.770514 -0.637423 0
    outer loop
      vertex 6.42705 1.76336 3
      vertex 6.18691 2.05364 9
      vertex 6.18691 2.05364 3
    endloop
  endfacet
  facet normal -0.770514 -0.637423 0
    outer loop
      vertex 6.18691 2.05364 9
      vertex 6.42705 1.76336 3
      vertex 6.42705 1.76336 9
    endloop
  endfacet
  facet normal -0.844331 -0.535822 0
    outer loop
      vertex 6.62892 1.44526 3
      vertex 6.42705 1.76336 9
      vertex 6.42705 1.76336 3
    endloop
  endfacet
  facet normal -0.844331 -0.535822 0
    outer loop
      vertex 6.42705 1.76336 9
      vertex 6.62892 1.44526 3
      vertex 6.62892 1.44526 9
    endloop
  endfacet
  facet normal -0.125338 -0.992114 0
    outer loop
      vertex 4.18837 2.99408 3
      vertex 4.56214 2.94686 9
      vertex 4.18837 2.99408 9
    endloop
  endfacet
  facet normal -0.125338 -0.992114 -0
    outer loop
      vertex 4.56214 2.94686 9
      vertex 4.18837 2.99408 3
      vertex 4.56214 2.94686 3
    endloop
  endfacet
  facet normal -0.248683 -0.968585 0
    outer loop
      vertex 4.56214 2.94686 3
      vertex 4.92705 2.85317 9
      vertex 4.56214 2.94686 9
    endloop
  endfacet
  facet normal -0.248683 -0.968585 -0
    outer loop
      vertex 4.92705 2.85317 9
      vertex 4.56214 2.94686 3
      vertex 4.92705 2.85317 3
    endloop
  endfacet
  facet normal 0 -1 0
    outer loop
      vertex 3.81163 2.99408 3
      vertex 4.18837 2.99408 9
      vertex 3.81163 2.99408 9
    endloop
  endfacet
  facet normal 0 -1 -0
    outer loop
      vertex 4.18837 2.99408 9
      vertex 3.81163 2.99408 3
      vertex 4.18837 2.99408 3
    endloop
  endfacet
  facet normal -0.481762 -0.876302 0
    outer loop
      vertex 5.27734 2.71448 3
      vertex 5.60748 2.53298 9
      vertex 5.27734 2.71448 9
    endloop
  endfacet
  facet normal -0.481762 -0.876302 -0
    outer loop
      vertex 5.60748 2.53298 9
      vertex 5.27734 2.71448 3
      vertex 5.60748 2.53298 3
    endloop
  endfacet
  facet normal 0.904828 -0.425778 0
    outer loop
      vertex 1.21067 1.10437 9
      vertex 1.37108 1.44526 3
      vertex 1.37108 1.44526 9
    endloop
  endfacet
  facet normal 0.904828 -0.425778 0
    outer loop
      vertex 1.37108 1.44526 3
      vertex 1.21067 1.10437 9
      vertex 1.21067 1.10437 3
    endloop
  endfacet
  facet normal 0.98229 -0.187369 0
    outer loop
      vertex 1.02366 0.375999 9
      vertex 1.09425 0.746069 3
      vertex 1.09425 0.746069 9
    endloop
  endfacet
  facet normal 0.98229 -0.187369 0
    outer loop
      vertex 1.09425 0.746069 3
      vertex 1.02366 0.375999 9
      vertex 1.02366 0.375999 3
    endloop
  endfacet
  facet normal 0.998026 -0.0628015 0
    outer loop
      vertex 1 0 9
      vertex 1.02366 0.375999 3
      vertex 1.02366 0.375999 9
    endloop
  endfacet
  facet normal 0.998026 -0.0628015 0
    outer loop
      vertex 1.02366 0.375999 3
      vertex 1 0 9
      vertex 1 0 3
    endloop
  endfacet
  facet normal 0.998026 0.0628015 0
    outer loop
      vertex 1.02366 -0.375999 9
      vertex 1 0 3
      vertex 1 0 9
    endloop
  endfacet
  facet normal 0.998026 0.0628015 0
    outer loop
      vertex 1 0 3
      vertex 1.02366 -0.375999 9
      vertex 1.02366 -0.375999 3
    endloop
  endfacet
  facet normal 0.684541 -0.728974 0
    outer loop
      vertex 1.81309 2.05364 3
      vertex 2.08773 2.31154 9
      vertex 1.81309 2.05364 9
    endloop
  endfacet
  facet normal 0.684541 -0.728974 0
    outer loop
      vertex 2.08773 2.31154 9
      vertex 1.81309 2.05364 3
      vertex 2.08773 2.31154 3
    endloop
  endfacet
  facet normal 0.368125 -0.929776 0
    outer loop
      vertex 2.72266 2.71448 3
      vertex 3.07295 2.85317 9
      vertex 2.72266 2.71448 9
    endloop
  endfacet
  facet normal 0.368125 -0.929776 0
    outer loop
      vertex 3.07295 2.85317 9
      vertex 2.72266 2.71448 3
      vertex 3.07295 2.85317 3
    endloop
  endfacet
  facet normal -0.844331 0.535822 0
    outer loop
      vertex 6.42705 -1.76336 3
      vertex 6.62892 -1.44526 9
      vertex 6.62892 -1.44526 3
    endloop
  endfacet
  facet normal -0.844331 0.535822 0
    outer loop
      vertex 6.62892 -1.44526 9
      vertex 6.42705 -1.76336 3
      vertex 6.42705 -1.76336 9
    endloop
  endfacet
  facet normal -0.98229 0.187369 0
    outer loop
      vertex 6.90575 -0.746069 3
      vertex 6.97634 -0.375999 9
      vertex 6.97634 -0.375999 3
    endloop
  endfacet
  facet normal -0.98229 0.187369 0
    outer loop
      vertex 6.97634 -0.375999 9
      vertex 6.90575 -0.746069 3
      vertex 6.90575 -0.746069 9
    endloop
  endfacet
  facet normal 0.58778 0.809021 -0
    outer loop
      vertex 2.39252 -2.53298 3
      vertex 2.08773 -2.31154 9
      vertex 2.39252 -2.53298 9
    endloop
  endfacet
  facet normal 0.58778 0.809021 0
    outer loop
      vertex 2.08773 -2.31154 9
      vertex 2.39252 -2.53298 3
      vertex 2.08773 -2.31154 3
    endloop
  endfacet
  facet normal 0.844331 0.535822 0
    outer loop
      vertex 1.57295 -1.76336 9
      vertex 1.37108 -1.44526 3
      vertex 1.37108 -1.44526 9
    endloop
  endfacet
  facet normal 0.844331 0.535822 0
    outer loop
      vertex 1.37108 -1.44526 3
      vertex 1.57295 -1.76336 9
      vertex 1.57295 -1.76336 3
    endloop
  endfacet
  facet normal 0.684541 0.728974 -0
    outer loop
      vertex 2.08773 -2.31154 3
      vertex 1.81309 -2.05364 9
      vertex 2.08773 -2.31154 9
    endloop
  endfacet
  facet normal 0.684541 0.728974 0
    outer loop
      vertex 1.81309 -2.05364 9
      vertex 2.08773 -2.31154 3
      vertex 1.81309 -2.05364 3
    endloop
  endfacet
  facet normal 0.98229 0.187369 0
    outer loop
      vertex 1.09425 -0.746069 9
      vertex 1.02366 -0.375999 3
      vertex 1.02366 -0.375999 9
    endloop
  endfacet
  facet normal 0.98229 0.187369 0
    outer loop
      vertex 1.02366 -0.375999 3
      vertex 1.09425 -0.746069 9
      vertex 1.09425 -0.746069 3
    endloop
  endfacet
  facet normal -0.58778 0.809021 0
    outer loop
      vertex 5.91227 -2.31154 3
      vertex 5.60748 -2.53298 9
      vertex 5.91227 -2.31154 9
    endloop
  endfacet
  facet normal -0.58778 0.809021 0
    outer loop
      vertex 5.60748 -2.53298 9
      vertex 5.91227 -2.31154 3
      vertex 5.60748 -2.53298 3
    endloop
  endfacet
  facet normal -0.904828 0.425778 0
    outer loop
      vertex 6.62892 -1.44526 3
      vertex 6.78933 -1.10437 9
      vertex 6.78933 -1.10437 3
    endloop
  endfacet
  facet normal -0.904828 0.425778 0
    outer loop
      vertex 6.78933 -1.10437 9
      vertex 6.62892 -1.44526 3
      vertex 6.62892 -1.44526 9
    endloop
  endfacet
  facet normal -0.998026 0.0628015 0
    outer loop
      vertex 6.97634 -0.375999 3
      vertex 7 0 9
      vertex 7 0 3
    endloop
  endfacet
  facet normal -0.998026 0.0628015 0
    outer loop
      vertex 7 0 9
      vertex 6.97634 -0.375999 3
      vertex 6.97634 -0.375999 9
    endloop
  endfacet
  facet normal 0.951056 0.309019 0
    outer loop
      vertex 1.21067 -1.10437 9
      vertex 1.09425 -0.746069 3
      vertex 1.09425 -0.746069 9
    endloop
  endfacet
  facet normal 0.951056 0.309019 0
    outer loop
      vertex 1.09425 -0.746069 3
      vertex 1.21067 -1.10437 9
      vertex 1.21067 -1.10437 3
    endloop
  endfacet
  facet normal 0.904828 0.425778 0
    outer loop
      vertex 1.37108 -1.44526 9
      vertex 1.21067 -1.10437 3
      vertex 1.21067 -1.10437 9
    endloop
  endfacet
  facet normal 0.904828 0.425778 0
    outer loop
      vertex 1.21067 -1.10437 3
      vertex 1.37108 -1.44526 9
      vertex 1.37108 -1.44526 3
    endloop
  endfacet
  facet normal -0.684541 0.728974 0
    outer loop
      vertex 6.18691 -2.05364 3
      vertex 5.91227 -2.31154 9
      vertex 6.18691 -2.05364 9
    endloop
  endfacet
  facet normal -0.684541 0.728974 0
    outer loop
      vertex 5.91227 -2.31154 9
      vertex 6.18691 -2.05364 3
      vertex 5.91227 -2.31154 3
    endloop
  endfacet
  facet normal -0.481762 0.876302 0
    outer loop
      vertex 5.60748 -2.53298 3
      vertex 5.27734 -2.71448 9
      vertex 5.60748 -2.53298 9
    endloop
  endfacet
  facet normal -0.481762 0.876302 0
    outer loop
      vertex 5.27734 -2.71448 9
      vertex 5.60748 -2.53298 3
      vertex 5.27734 -2.71448 3
    endloop
  endfacet
  facet normal -0.368125 0.929776 0
    outer loop
      vertex 5.27734 -2.71448 3
      vertex 4.92705 -2.85317 9
      vertex 5.27734 -2.71448 9
    endloop
  endfacet
  facet normal -0.368125 0.929776 0
    outer loop
      vertex 4.92705 -2.85317 9
      vertex 5.27734 -2.71448 3
      vertex 4.92705 -2.85317 3
    endloop
  endfacet
  facet normal 0 1 -0
    outer loop
      vertex 4.18837 -2.99408 3
      vertex 3.81163 -2.99408 9
      vertex 4.18837 -2.99408 9
    endloop
  endfacet
  facet normal 0 1 0
    outer loop
      vertex 3.81163 -2.99408 9
      vertex 4.18837 -2.99408 3
      vertex 3.81163 -2.99408 3
    endloop
  endfacet
  facet normal 0.481762 0.876302 -0
    outer loop
      vertex 2.72266 -2.71448 3
      vertex 2.39252 -2.53298 9
      vertex 2.72266 -2.71448 9
    endloop
  endfacet
  facet normal 0.481762 0.876302 0
    outer loop
      vertex 2.39252 -2.53298 9
      vertex 2.72266 -2.71448 3
      vertex 2.39252 -2.53298 3
    endloop
  endfacet
  facet normal 0.770514 0.637423 0
    outer loop
      vertex 1.81309 -2.05364 9
      vertex 1.57295 -1.76336 3
      vertex 1.57295 -1.76336 9
    endloop
  endfacet
  facet normal 0.770514 0.637423 0
    outer loop
      vertex 1.57295 -1.76336 3
      vertex 1.81309 -2.05364 9
      vertex 1.81309 -2.05364 3
    endloop
  endfacet
  facet normal 0.125338 0.992114 -0
    outer loop
      vertex 3.81163 -2.99408 3
      vertex 3.43786 -2.94686 9
      vertex 3.81163 -2.99408 9
    endloop
  endfacet
  facet normal 0.125338 0.992114 0
    outer loop
      vertex 3.43786 -2.94686 9
      vertex 3.81163 -2.99408 3
      vertex 3.43786 -2.94686 3
    endloop
  endfacet
  facet normal 0.248683 0.968585 -0
    outer loop
      vertex 3.43786 -2.94686 3
      vertex 3.07295 -2.85317 9
      vertex 3.43786 -2.94686 9
    endloop
  endfacet
  facet normal 0.248683 0.968585 0
    outer loop
      vertex 3.07295 -2.85317 9
      vertex 3.43786 -2.94686 3
      vertex 3.07295 -2.85317 3
    endloop
  endfacet
  facet normal 0.368125 0.929776 -0
    outer loop
      vertex 3.07295 -2.85317 3
      vertex 2.72266 -2.71448 9
      vertex 3.07295 -2.85317 9
    endloop
  endfacet
  facet normal 0.368125 0.929776 0
    outer loop
      vertex 2.72266 -2.71448 9
      vertex 3.07295 -2.85317 3
      vertex 2.72266 -2.71448 3
    endloop
  endfacet
endsolid OpenSCAD_Model
